<svg width="59" height="51" viewBox="0 0 59 51" fill="none" xmlns="http://www.w3.org/2000/svg">
<path d="M57.6564 23.2714L13.987 0.294774C12.3041 -0.590306 10.2751 0.624585 10.2751 2.51585V12.7676H2.52866C1.13212 12.7676 0 13.8928 0 15.2807C0 16.6686 1.13212 17.7938 2.52866 17.7938H10.2751V38.2972H2.52866C1.13212 38.2972 0 39.4224 0 40.8103C0 42.1982 1.13212 43.3234 2.52866 43.3234H10.2751V48.4692C10.2751 49.8567 11.4082 50.9823 12.8039 50.9823C13.7199 50.9823 10.5679 52.4892 57.6564 27.7136C59.4475 26.7712 59.4482 24.2142 57.6564 23.2714ZM15.3324 44.2952V28.0056H35.9229C37.3195 28.0056 38.4516 26.8805 38.4516 25.4925C38.4516 24.1046 37.3195 22.9795 35.9229 22.9795H15.3324V6.68983L51.0689 25.4925L15.3324 44.2952Z" fill="#003C6D"/>
</svg>
