<svg width="113" height="55" viewBox="0 0 113 55" fill="none" xmlns="http://www.w3.org/2000/svg">
<path d="M0.188477 44.5979V9.41753C0.188477 4.22166 4.40093 0 9.58548 0H96.5996C101.784 0 105.997 4.22166 105.997 9.41753V44.5979C105.997 49.7938 101.784 54.0154 96.5996 54.0154H9.60708C4.42253 54.0154 0.188477 49.7938 0.188477 44.5979ZM102.562 9.41753C102.562 6.12681 99.9047 3.46393 96.6212 3.46393H9.60708C6.32353 3.46393 3.66645 6.12681 3.66645 9.41753V44.5979C3.66645 47.8886 6.32353 50.5515 9.60708 50.5515H96.6212C99.9047 50.5515 102.562 47.8886 102.562 44.5979V9.41753Z" fill="white"/>
<path d="M75.7451 47.297L75.7451 6.72583L63.2158 6.72583L63.2158 47.297H75.7451Z" fill="white"/>
<path d="M57.7168 47.2872L57.7168 6.71606L45.1874 6.71606L45.1874 47.2872H57.7168Z" fill="white"/>
<path d="M39.6885 47.2994L39.6885 6.72827L27.1591 6.72827L27.1591 47.2994H39.6885Z" fill="white"/>
<path d="M9.13184 41.3721V12.6649C9.13184 9.39581 11.7889 6.73291 15.0509 6.73291H21.6612V47.304H15.0509C11.7889 47.304 9.13184 44.6411 9.13184 41.3721Z" fill="white"/>
<path d="M103.534 35.0938V20.2639H109.345C110.9 20.2639 112.175 21.5412 112.175 23.1V32.2793C112.175 33.8381 110.9 35.1154 109.345 35.1154H103.534V35.0938ZM105.391 22.1258V33.2319H109.345C109.885 33.2319 110.317 32.7989 110.317 32.2577V23.0783C110.317 22.5371 109.885 22.1041 109.345 22.1041H105.391V22.1258Z" fill="white"/>
</svg>
