<svg width="44" height="40" viewBox="0 0 44 40" fill="none" xmlns="http://www.w3.org/2000/svg">
<path d="M31.7171 14.7814L34.7285 1.70043C34.928 0.826465 34.263 0 33.37 0H12.3379C10.191 0 8.32909 1.48194 7.84461 3.57185C7.64512 4.44581 8.31009 5.27228 9.20306 5.27228H26.8438C27.7368 5.27228 28.4018 6.10825 28.2023 6.97271L27.6228 9.4711C27.4803 10.0981 26.9198 10.5446 26.2643 10.5446H7.34114C6.69516 10.5446 6.13469 10.991 5.98269 11.618L0.0359421 37.3239C-0.16355 38.1979 0.491923 39.0244 1.39439 39.0244H3.81678C4.46276 39.0244 5.02323 38.5779 5.17523 37.9509L10.0485 16.9378C10.191 16.3108 10.7515 15.8643 11.407 15.8643H30.3682C31.0046 15.8643 31.5746 15.4179 31.7171 14.7814Z" fill="#171C49"/>
<path d="M38.2146 0.835965L32.6289 25.003C32.5149 25.4969 32.0779 25.8389 31.5744 25.8389H17.629C16.9355 25.8389 16.4226 25.1929 16.5746 24.5185L17.7905 19.2177C17.9425 18.5432 17.4295 17.8973 16.736 17.8973H13.6772C13.1737 17.8973 12.7367 18.2487 12.6227 18.7332L8.2529 37.7039C8.10091 38.3784 8.61389 39.0339 9.30736 39.0339H12.3662C12.8697 39.0339 13.3067 38.6824 13.4207 38.1979L14.8551 31.9662C14.9691 31.4722 15.4061 31.1302 15.9096 31.1302H29.8455C30.539 31.1302 31.0614 31.7762 30.9 32.4601L29.684 37.7229C29.5225 38.3974 30.045 39.0529 30.7385 39.0529C33.0279 39.0529 35.0133 37.4664 35.5358 35.234L36.4857 31.1397L37.7017 25.8674L43.3824 1.35844C43.5344 0.645973 43.0119 0 42.3185 0H39.2691C38.7656 0 38.3286 0.351485 38.2146 0.835965Z" fill="#171C49"/>
</svg>
