<svg width="100" height="94" viewBox="0 0 100 94" fill="none" xmlns="http://www.w3.org/2000/svg">
<path d="M91.6667 17.9048H70.8333V8.95238C70.8333 4.01502 67.0959 0 62.5 0H37.5C32.9041 0 29.1667 4.01502 29.1667 8.95238V17.9048H8.33333C3.73739 17.9048 0 21.9198 0 26.8571V85.0476C0 89.985 3.73739 94 8.33333 94H91.6667C96.2626 94 100 89.985 100 85.0476V26.8571C100 21.9198 96.2626 17.9048 91.6667 17.9048ZM75 26.8571V85.0476H25V26.8571H75ZM37.5 8.95238H62.5V17.9048H37.5V8.95238ZM8.32926 26.8571H16.6667V85.0476H8.33333L8.32926 26.8571ZM91.6667 85.0476H83.3333V26.8571H91.6667V85.0476Z" fill="#FA7921"/>
</svg>
