<svg width="115" height="115" viewBox="0 0 115 115" fill="none" xmlns="http://www.w3.org/2000/svg">
<path d="M111.014 107.749H109.956V66.7454C109.956 64.8835 108.465 63.3897 106.607 63.3897H85.934V3.35567C85.934 1.49381 84.4434 0 82.5856 0H31.7122C29.8544 0 28.3638 1.49381 28.3638 3.35567V25.3299H7.71202C5.85423 25.3299 4.36367 26.8237 4.36367 28.6856V107.728H3.34836C1.49056 107.749 0 109.243 0 111.105C0 112.967 1.49056 114.461 3.34836 114.461H111.014C112.872 114.461 114.363 112.967 114.363 111.105C114.363 109.243 112.872 107.749 111.014 107.749ZM103.259 70.101V78.934H85.934V70.101H103.259ZM28.3638 66.5505H11.0604V52.067H28.3854L28.3638 66.5505ZM11.0604 73.2619H28.3854V87.7454H11.0604V73.2619ZM28.3638 32.0412V45.334H11.0604V32.0412H28.3638ZM11.0604 94.4567H28.3854V107.749H11.0604V94.4567ZM35.0605 6.71134H79.2373V107.749H72.1517V88.9361C72.1517 87.0742 70.6612 85.5804 68.8034 85.5804H45.5161C43.6583 85.5804 42.1677 87.0742 42.1677 88.9361V107.749H35.0821L35.0605 6.71134ZM48.8644 107.749V92.2917H65.4766V107.749H48.8644ZM85.934 107.749V85.6454H103.259V107.749H85.934Z" fill="white"/>
</svg>
