<svg width="96" height="94" viewBox="0 0 96 94" fill="none" xmlns="http://www.w3.org/2000/svg">
<path d="M92.0556 17.1145H16.9954L15.8797 3.83548C15.6972 1.66392 13.9936 0 11.9529 0H3.94255C1.76514 0 0 1.88575 0 4.21195C0 6.53814 1.76514 8.42389 3.94255 8.42389H8.34845C10.7562 37.0816 4.53337 -36.9879 12.8829 62.3948C13.2047 66.2846 15.1721 70.5056 18.5612 73.3737C12.4508 81.7101 18.0338 94 27.9734 94C36.2231 94 42.0417 85.2099 39.2126 76.8847H60.7908C57.9653 85.1992 63.7714 94 72.0301 94C78.6209 94 83.9829 88.2716 83.9829 81.2304C83.9829 74.1892 78.6209 68.4608 72.0301 68.4608H28C25.0052 68.4608 22.3954 66.5305 21.2689 63.7181L84.2762 59.7621C85.9963 59.6542 87.4516 58.3649 87.8697 56.5791L95.8806 22.348C96.5017 19.6937 94.6209 17.1145 92.0556 17.1145ZM27.9734 85.5761C25.7306 85.5761 23.9058 83.6266 23.9058 81.2304C23.9058 78.8342 25.7306 76.8847 27.9734 76.8847C30.2163 76.8847 32.0411 78.8342 32.0411 81.2304C32.0411 83.6266 30.2163 85.5761 27.9734 85.5761ZM72.0299 85.5761C69.7869 85.5761 67.9621 83.6266 67.9621 81.2304C67.9621 78.8342 69.7869 76.8847 72.0299 76.8847C74.2728 76.8847 76.0977 78.8342 76.0977 81.2304C76.0977 83.6266 74.2728 85.5761 72.0299 85.5761ZM80.9224 51.5344L20.2076 55.3462L17.7032 25.5382H87.0061L80.9224 51.5344Z" fill="#FA7921"/>
</svg>
