<svg width="107" height="107" viewBox="0 0 107 107" fill="none" xmlns="http://www.w3.org/2000/svg">
<path d="M97.6247 0H9.68155C4.5186 0 0.306152 4.22164 0.306152 9.39587V72.4608C0.306152 77.635 4.5186 81.8567 9.68155 81.8567H37.8078V88.1134H32.2992C28.7348 88.1134 25.5161 90.1052 23.9175 93.3093L19.4026 102.38C18.3657 104.459 19.8779 106.905 22.1893 106.905H85.1169C87.4283 106.905 88.9621 104.459 87.9036 102.38L83.3887 93.3093C81.855 90.2567 78.2473 88.1134 74.575 88.1134H69.0664V81.8567H97.603C102.766 81.8567 106.978 77.635 106.978 72.4608V9.39587C107 4.22164 102.809 0 97.6247 0ZM74.5966 94.3918C75.8927 94.3918 77.34 95.1711 77.8153 96.1237L80.0836 100.648H27.2659L29.5341 96.1237C30.0742 95.0629 31.1327 94.3918 32.3208 94.3918H74.5966ZM44.0725 88.1351V81.8783H62.8233V88.1351H44.0725ZM100.757 72.4608C100.757 74.1928 99.3528 75.6 97.6247 75.6H9.68155C7.95337 75.6 6.54926 74.1928 6.54926 72.4608V69.3216H100.735V72.4608H100.757ZM100.757 63.065H6.57081V9.39587C6.57081 7.66391 7.97499 6.2567 9.70318 6.2567H97.6462C99.3744 6.2567 100.779 7.66391 100.779 9.39587V63.065H100.757Z" fill="white"/>
<path d="M53.448 12.535C41.394 12.535 31.5649 22.3639 31.5649 34.466C31.5649 46.5464 41.3724 56.3969 53.448 56.3969C65.5021 56.3969 75.3311 46.568 75.3311 34.466C75.3311 22.3639 65.5237 12.535 53.448 12.535ZM53.448 50.1185C44.8287 50.1185 37.8296 43.0825 37.8296 34.466C37.8296 26.9103 43.2086 20.567 50.3373 19.1165V34.466C50.3373 36.1979 51.7415 37.5835 53.4697 37.5835H68.7856C67.3167 44.7062 61.0088 50.1185 53.448 50.1185ZM56.5804 31.3268V19.1165C62.6938 20.3722 67.5327 25.2 68.764 31.3268H56.5804Z" fill="white"/>
</svg>
