<svg width="1440" height="759" viewBox="0 0 1440 759" fill="none" xmlns="http://www.w3.org/2000/svg">
<mask id="mask0_0_14" style="mask-type:alpha" maskUnits="userSpaceOnUse" x="0" y="0" width="1440" height="759">
<rect width="1440" height="759" fill="#171C49"/>
</mask>
<g mask="url(#mask0_0_14)">
<path d="M326.381 622.071L324.827 622.967L320.771 615.942C314.71 605.444 301.313 601.794 290.897 607.808C280.48 613.822 276.942 627.249 283.003 637.747L287.06 644.773L285.506 645.67C282.328 647.504 281.26 651.586 283.107 654.784L298.98 682.278C300.826 685.476 304.906 686.586 308.074 684.757L348.938 661.164C352.106 659.335 353.184 655.247 351.337 652.049L335.464 624.556C333.622 621.342 329.559 620.236 326.381 622.071ZM319.855 652.384L321.93 655.979C322.24 656.517 322.066 657.199 321.528 657.51L318.634 659.181C318.106 659.485 317.418 659.301 317.107 658.763L315.032 655.169C313.237 655.108 311.516 654.167 310.549 652.491C309.066 649.923 309.925 646.651 312.473 645.18C315.022 643.709 318.284 644.6 319.767 647.169C320.74 648.854 320.695 650.816 319.855 652.384ZM316.553 627.745L295.344 639.99L291.288 632.964C287.882 627.065 289.867 619.53 295.725 616.148C301.573 612.772 309.091 614.82 312.497 620.719L316.553 627.745V627.745Z" fill="#FA7921" fill-opacity="0.28"/>
<path d="M947.529 297.037L972.451 259.076L928.914 263.087L946.822 296.088C947.02 296.453 947.263 296.765 947.529 297.037Z" fill="#FA7921" fill-opacity="0.28"/>
<path d="M973.902 262.252L949.692 298.429C951.277 299.176 953.396 299.068 955.303 297.92L1018.8 259.683C1020.86 258.44 1022.07 256.349 1022.07 254.404L980.818 258.088L978.291 261.855L973.902 262.252Z" fill="#FA7921" fill-opacity="0.28"/>
<path d="M1021.09 251.977L1003.43 219.441L979.088 256.512L1021.34 252.632C1021.26 252.406 1021.2 252.182 1021.09 251.977Z" fill="#FA7921" fill-opacity="0.28"/>
<path d="M930.165 253.933C927.331 255.647 926.075 258.955 927.372 261.314L927.445 261.445L975.079 257.164L1001.81 217.049L1001.5 216.479C1000.2 214.12 996.851 213.597 994.006 215.318L930.165 253.933Z" fill="#FA7921" fill-opacity="0.28"/>
<path d="M662.976 402.472C660.22 404.098 659.021 407.222 660.279 409.455L660.463 409.781C660.952 408.412 661.991 407.119 663.482 406.24L706.992 380.577C705.458 379.142 702.774 378.999 700.45 380.37L662.976 402.472Z" fill="#FA7921" fill-opacity="0.28"/>
<path d="M666.103 411.377C663.216 413.143 661.959 416.532 663.275 418.951L681.43 452.302C682.747 454.721 686.154 455.256 689.03 453.497L753.899 413.812C756.786 412.046 758.043 408.657 756.726 406.239L738.571 372.887C737.25 370.46 733.847 369.933 730.971 371.693L666.103 411.377Z" fill="#FA7921" fill-opacity="0.28"/>
<path d="M802.696 319.343C800.486 320.701 799.51 323.324 800.522 325.188L827.659 375.192C828.671 377.056 831.294 377.469 833.504 376.111L869.299 354.121L865.694 347.478C864.102 344.545 865.631 340.432 869.108 338.297L877.848 332.927L855.363 291.497C854.352 289.632 851.729 289.22 849.519 290.577L802.696 319.343ZM859.887 325.509L825.958 346.354L824.692 344.021L858.621 323.176L859.887 325.509ZM855.463 317.358L821.535 338.202L820.269 335.869L854.197 315.025L855.463 317.358ZM851.04 309.207L817.111 330.051L815.845 327.718L849.774 306.874L851.04 309.207Z" fill="#FA7921" fill-opacity="0.28"/>
<path d="M868.218 349.684L871.091 354.978L877.257 339.676L870.357 343.913C868.182 345.26 867.22 347.846 868.218 349.684Z" fill="#FA7921" fill-opacity="0.28"/>
<path d="M1320.64 12.9836L1357.76 81.3856L1425.99 39.6166L1424.03 35.9963L1388.87 -28.7854L1320.64 12.9836ZM1401.32 15.295L1401.24 15.1453L1408.73 28.9436L1357.76 60.2524L1352.6 50.7292L1352.62 50.776L1333.19 14.966L1384.15 -16.3427L1384.2 -16.2492L1401.32 15.295Z" fill="#FA7921" fill-opacity="0.28"/>
<path d="M1344.48 13.8109C1341.74 15.4976 1340.51 18.7461 1341.77 21.0722C1343.03 23.3891 1346.28 23.9168 1349.03 22.2233C1351.78 20.5366 1353.01 17.2883 1351.74 14.9621C1350.5 12.6385 1347.24 12.1175 1344.48 13.8109Z" fill="#FA7921" fill-opacity="0.28"/>
<path d="M1371.81 35.2938L1358.35 33.5174L1355.44 47.6977L1360.05 56.1641L1404.2 29.1414L1397.53 16.8819L1375.84 12.4934L1371.81 35.2938Z" fill="#FA7921" fill-opacity="0.28"/>
<path d="M1379.74 -16.4705L1333.07 10.488L1379.78 -16.3977L1379.74 -16.4705Z" fill="#FA7921" fill-opacity="0.28"/>
<path d="M159.944 686.107C159.922 686.12 159.911 686.127 159.889 686.141L159.894 686.15C158.216 687.38 154.18 691.278 149.457 696.657C144.7 702.081 139.417 706.235 135.255 710.174C131.116 714.073 134.557 718.294 134.557 718.294C134.557 718.294 146.734 736.413 149.165 739.127C160.784 752.138 193.217 748.405 193.217 748.405L193.228 748.398C193.228 748.398 213.177 720.435 208.387 702.855C207.387 699.163 198.562 678.386 198.562 678.386C198.562 678.386 196.826 672.956 191.392 675.013C185.958 677.069 179.82 680.056 172.961 681.905C166.206 683.728 161.807 685.136 160.009 686.091L160.004 686.082C159.977 686.086 159.955 686.1 159.944 686.107ZM173.088 687.44C178.346 686.039 183.106 684.073 187.323 682.329C187.323 682.329 191.209 680.9 191.862 680.636C191.862 680.636 191.995 680.529 192.397 681.377C192.457 681.515 192.456 681.54 192.521 681.687C195.891 689.611 201.468 703.098 202.156 705.588C204.225 713.153 200.445 723.64 196.923 731.068C194.596 735.995 192.043 740.289 190.315 743.031C187.243 743.213 182.589 743.335 177.481 742.975C169.672 742.421 159.359 740.568 154.3 734.914C152.653 733.076 144.641 721.383 139.986 714.461C139.899 714.328 139.888 714.309 139.8 714.201C139.615 713.942 139.451 713.557 139.381 713.264C140.478 712.242 141.685 711.177 142.959 710.045C146.34 707.06 150.185 703.652 153.841 699.489C157.965 694.802 161.087 691.802 162.387 690.691C163.387 690.277 166.142 689.293 173.088 687.44Z" fill="#FA7921" fill-opacity="0.28"/>
<path d="M163.149 692.278C163.138 692.285 163.126 692.292 163.115 692.299L163.12 692.308C161.872 693.225 158.901 696.149 155.427 700.218C151.924 704.318 148.008 707.436 144.915 710.409C141.851 713.353 144.527 716.702 144.527 716.702C144.527 716.702 154.053 731.038 155.937 733.201C164.953 743.542 189.338 741.246 189.338 741.246C189.338 741.246 203.776 719.966 199.856 706.281C199.034 703.403 192.03 687.169 192.03 687.169C192.03 687.169 190.623 682.94 186.593 684.404C182.552 685.876 177.998 688.037 172.863 689.319C167.816 690.572 164.52 691.56 163.187 692.267L163.182 692.258C163.182 692.258 163.16 692.271 163.149 692.278Z" fill="#FA7921" fill-opacity="0.28"/>
<path d="M1088.53 221.843C1089.8 224.211 1093.16 224.681 1096.03 222.904L1147.91 190.741C1150.78 188.964 1152.06 185.613 1150.79 183.246C1150.79 183.246 1129.87 144.473 1129.56 143.895C1129.06 142.959 1128.37 142.369 1127.32 142.211C1126.65 142.115 1119.23 141.066 1115.42 140.514C1114.07 140.331 1112.05 140.898 1110.75 141.704C1109.45 142.51 1066.9 168.894 1066.9 168.894C1064.03 170.671 1062.75 174.022 1064.02 176.389L1088.53 221.843ZM1109.59 145.97L1117.48 160.601C1118.17 161.877 1117.23 164.073 1115.7 165.033L1093.16 179.002C1091.61 179.959 1089.51 179.634 1088.83 178.368L1080.94 163.736L1109.59 145.97Z" fill="#FA7921" fill-opacity="0.28"/>
<path d="M1104.56 166.787L1110.6 163.047C1111.6 162.432 1112.05 161.262 1111.61 160.443L1106.2 150.455C1105.76 149.636 1104.59 149.47 1103.59 150.085L1097.55 153.824C1096.55 154.439 1096.1 155.609 1096.54 156.428L1101.95 166.416C1102.39 167.235 1103.56 167.402 1104.56 166.787Z" fill="#FA7921" fill-opacity="0.28"/>
<path d="M1282 121.011C1283.28 120.273 1283.73 118.634 1282.98 117.344L1268.62 92.4701L1274.74 88.9414L1274.75 88.9355C1276.98 87.646 1277.74 84.7954 1276.45 82.5618C1275.71 81.2826 1274.47 80.4855 1273.12 80.2777L1261.25 77.9909L1254.67 66.5894C1253.9 65.2594 1252.2 64.7944 1250.86 65.5682L1245.86 68.4521C1244.53 69.22 1244.07 70.9336 1244.84 72.2636L1246.5 75.1367L1225.4 71.0458C1223.12 70.6052 1220.86 71.9065 1220.1 74.1055L1204.19 120.219C1203.56 122.059 1204.13 124.099 1205.64 125.343C1207.13 126.577 1209.26 126.759 1210.94 125.786L1217.05 122.258L1231.41 147.132C1232.16 148.421 1233.8 148.853 1235.08 148.114L1248.83 140.178L1238.39 122.096C1236.91 119.537 1237.79 116.27 1240.35 114.793L1250.52 108.92C1253.08 107.443 1256.34 108.318 1257.82 110.876L1268.26 128.958L1282.01 121.022L1282 121.011Z" fill="#FA7921" fill-opacity="0.28"/>
<path d="M599.136 465.096L597.481 466.052C594.459 463.912 585.815 458.249 579.402 458.513C577.233 458.601 569.572 459.234 561.986 463.844C556.031 467.458 549.052 473.775 547.247 478.878C545.828 482.892 545.974 491.539 546.633 495.423L545.008 496.361C544.999 496.65 534.042 506.09 532.556 511.862C530.969 517.976 536.489 528.732 540.134 526.628C541.149 526.042 545.2 523.703 551.718 519.94C551.832 520.185 551.963 520.434 552.098 520.668C554.647 525.084 560.3 526.599 564.717 524.049C569.133 521.499 570.648 515.846 568.098 511.43C567.958 511.186 567.813 510.959 567.657 510.737C573.546 507.337 580.237 503.474 587.618 499.213C588.785 498.539 589.953 497.865 591.151 497.173C594.4 495.297 597.638 493.428 600.786 491.61C600.9 491.856 601.02 492.111 601.155 492.344C603.705 496.761 609.358 498.276 613.775 495.726C618.191 493.176 619.706 487.523 617.156 483.107C617.015 482.863 616.86 482.641 616.715 482.413C622.583 479.025 626.756 476.616 627.792 476.018C631.447 473.908 624.881 463.756 618.793 462.073C613.051 460.474 599.397 465.243 599.136 465.096ZM568.485 482.793L554.008 491.151C553.846 487.847 553.954 483.25 554.577 481.469C555.269 479.526 558.533 475.895 562.688 472.752L568.485 482.793ZM579.247 476.579L575.714 478.619L575.217 478.906L569.355 468.754C574.093 466.668 578.328 466.335 579.712 466.294C582.002 466.203 586.271 468.206 589.934 470.423L579.253 476.589L579.247 476.579Z" fill="#FA7921" fill-opacity="0.28"/>
<path d="M459.349 545.369L457.796 546.266L449.522 551.043L428.333 563.276L424.312 556.312C420.935 550.464 422.944 542.969 428.792 539.593C434.629 536.222 442.134 538.225 445.511 544.073L453.785 539.295C447.777 528.889 434.421 525.31 424.014 531.318C413.608 537.326 410.029 550.682 416.037 561.089L420.058 568.054L418.505 568.95C415.338 570.779 414.242 574.837 416.076 578.015L431.815 605.274C433.65 608.452 437.701 609.538 440.879 607.703L481.723 584.122C484.891 582.293 485.981 578.225 484.152 575.058L468.413 547.798C466.585 544.63 462.517 543.54 459.349 545.369ZM452.739 575.515L454.797 579.078C455.102 579.606 454.927 580.289 454.389 580.6L451.506 582.264C450.978 582.569 450.295 582.395 449.984 581.857L447.927 578.293C446.138 578.243 444.423 577.311 443.467 575.656C441.996 573.108 442.867 569.857 445.415 568.386C447.964 566.914 451.215 567.785 452.686 570.334C453.631 571.995 453.58 573.946 452.739 575.515Z" fill="#FA7921" fill-opacity="0.28"/>
<path d="M261.131 9.62976C259.382 10.682 258.61 12.7185 259.416 14.1756L259.952 15.147L274.621 6.31943L274.084 5.34802C273.279 3.89091 271.203 3.56827 269.444 4.62683L261.131 9.62976V9.62976Z" fill="#FA7921" fill-opacity="0.28"/>
<path d="M294.165 20.5041C292.848 23.9311 292.839 27.5375 294.446 30.5224C296.058 33.5164 298.971 35.3031 302.398 35.7948C305.825 36.2866 309.734 35.4789 313.359 33.2363C316.983 30.9936 319.592 27.7687 320.909 24.3417C322.226 20.9146 322.239 17.3174 320.627 14.3234C319.02 11.3385 316.092 9.54953 312.676 9.05091C309.249 8.55915 305.339 9.36685 301.714 11.6095C298.095 13.8613 295.487 17.0862 294.165 20.5041Z" fill="#FA7921" fill-opacity="0.28"/>
<path d="M311.998 -8.46309C308.947 -11.5397 303.406 -11.8311 298.574 -8.85374L286.369 -1.33347C281.537 1.64385 278.999 6.913 279.965 11.2742L260.474 23.2839C256.652 25.639 254.934 30.0936 256.629 33.2315L272.752 63.0813C274.452 66.228 278.923 66.869 282.745 64.5139L353.749 20.764C357.56 18.4156 359.279 13.9609 357.579 10.8142L341.456 -19.0356C339.761 -22.1735 335.29 -22.8144 331.478 -20.466L311.998 -8.46309V-8.46309ZM314.101 34.8157C305.49 40.1213 295.419 38.6774 291.589 31.5882C287.76 24.499 291.626 14.4554 300.237 9.14969C308.848 3.84404 318.935 5.29023 322.764 12.3794C326.593 19.4686 322.711 29.51 314.101 34.8157ZM331.391 -12.4291L324.127 -7.95306C323.399 -7.50479 322.541 -7.61957 322.213 -8.22747C321.889 -8.82644 322.226 -9.67715 322.953 -10.1254L330.218 -14.6014C330.945 -15.0497 331.803 -14.935 332.127 -14.336C332.45 -13.737 332.119 -12.8774 331.391 -12.4291Z" fill="#FA7921" fill-opacity="0.28"/>
<path d="M147.47 150.035L229.323 99.8701C231.979 98.2425 233.143 95.1194 231.927 92.8827C231.044 91.2577 229.136 90.5651 227.136 90.9267L217.322 89.9922C220.029 87.9802 221.164 84.6189 219.819 82.1448L200.041 45.7548C198.602 43.1073 194.899 42.5164 191.756 44.443L121.078 87.7586C117.935 89.6852 116.564 93.3852 118.003 96.0327L137.787 132.432C139.166 134.97 142.619 135.58 145.673 133.94L141.304 143.53C140.643 144.361 140.216 145.304 140.071 146.233L140.031 146.318L140.063 146.298C139.929 147.221 140.049 148.133 140.485 148.936C141.685 151.171 144.825 151.656 147.47 150.035ZM147.861 146.181C147.34 146.5 146.724 146.403 146.486 145.965C146.248 145.526 146.477 144.911 146.997 144.592C147.528 144.267 148.145 144.364 148.383 144.802C148.621 145.24 148.392 145.855 147.861 146.181ZM151.633 143.869C151.113 144.188 150.496 144.091 150.258 143.653C150.02 143.215 150.249 142.599 150.77 142.281C151.29 141.962 151.906 142.059 152.144 142.497C152.383 142.935 152.153 143.55 151.633 143.869ZM155.655 141.404C155.134 141.723 154.518 141.626 154.28 141.188C154.042 140.75 154.271 140.135 154.791 139.816C155.322 139.49 155.928 139.594 156.166 140.032C156.415 140.464 156.186 141.079 155.655 141.404ZM190.321 120.158L182.321 125.061C181.801 125.38 181.185 125.283 180.946 124.845C180.708 124.407 180.938 123.792 181.458 123.473L189.458 118.57C189.978 118.251 190.605 118.341 190.843 118.78C191.082 119.218 190.842 119.84 190.321 120.158ZM157.949 68.9467C158.535 68.588 159.203 68.7015 159.466 69.1853C159.729 69.6692 159.481 70.3566 158.907 70.7087C158.332 71.0608 157.664 70.9472 157.396 70.4543C157.133 69.9704 157.375 69.2988 157.949 68.9467ZM141.671 126.923L124.443 95.2258L196.15 51.2791L213.378 82.9766L141.671 126.923ZM147.716 133.685L149.548 132.562L146.3 139.482L221.292 93.5222L214.209 92.934L216.128 91.7581L224.543 92.5643L143.936 141.965L147.716 133.685Z" fill="#FA7921" fill-opacity="0.28"/>
<path d="M40.8428 150.933L29.2087 181.152C29.0176 181.648 29.2638 182.106 29.7652 182.186C30.2617 182.257 30.8272 181.906 31.0184 181.41L42.6525 151.191C42.8436 150.695 42.5924 150.228 42.096 150.157C41.5885 150.093 41.034 150.436 40.8428 150.933Z" fill="#FA7921" fill-opacity="0.28"/>
<path d="M44.7228 164.747L38.8102 180.104C38.7115 180.361 38.8987 180.599 39.219 180.644C39.5393 180.69 39.8806 180.527 39.9792 180.271L45.8918 164.913C45.9905 164.657 45.8033 164.419 45.483 164.374C45.1627 164.328 44.8215 164.49 44.7228 164.747Z" fill="#FA7921" fill-opacity="0.28"/>
<path d="M-10.7718 153.219C-13.0451 154.615 -14.0419 157.295 -13.0011 159.213L23.8723 227.139C24.9132 229.056 27.5937 229.477 29.867 228.081L89.6641 191.35C91.9374 189.953 92.9343 187.273 91.8934 185.356L55.0251 117.439C53.9843 115.522 51.3037 115.1 49.0304 116.497L-10.7667 153.228L-10.7718 153.219ZM20.4816 136.226C21.0054 135.905 21.6227 136.002 21.8625 136.444C22.1023 136.885 21.8728 137.503 21.349 137.824C20.8253 138.146 20.2079 138.049 19.9681 137.607C19.7334 137.175 19.9579 136.548 20.4816 136.226ZM18.8645 141.268L25.4059 137.25C25.8628 136.969 26.404 137.063 26.6234 137.467C26.8377 137.862 26.6434 138.407 26.1865 138.688L19.6452 142.706C19.1883 142.987 18.6471 142.893 18.4328 142.498C18.2134 142.094 18.4077 141.549 18.8645 141.268ZM16.0071 143.149C16.4194 142.895 16.9067 142.972 17.0955 143.32C17.2843 143.667 17.1031 144.155 16.6908 144.408C16.2784 144.661 15.7911 144.585 15.6023 144.237C15.4135 143.889 15.5947 143.402 16.0071 143.149ZM58.3268 207.065C55.9977 208.495 53.241 208.071 52.1696 206.097C51.1032 204.133 52.1303 201.371 54.4593 199.94C56.7883 198.51 59.5502 198.944 60.6165 200.908C61.688 202.882 60.6669 205.627 58.3268 207.065ZM80.7089 181.422L26.2719 214.861L-3.48398 160.047L50.953 126.608L80.7089 181.422Z" fill="#FA7921" fill-opacity="0.28"/>
<path d="M642.129 656.789C648.013 667.632 663.263 670.041 676.127 662.14C688.991 654.24 694.662 638.994 688.773 628.142C682.884 617.29 667.638 614.89 654.774 622.791C641.91 630.691 636.24 645.937 642.129 656.789ZM681.044 631.282C685.933 638.375 682.919 649.122 674.301 655.293C665.683 661.463 654.736 660.723 649.847 653.63C644.958 646.538 647.973 635.79 656.591 629.62C665.209 623.45 676.161 624.199 681.044 631.282Z" fill="#FA7921" fill-opacity="0.28"/>
<path d="M703.324 633.694L707.11 631.196C707.996 630.615 708.581 629.428 708.426 628.547L706.893 622.619C706.617 621.787 705.579 621.251 704.597 621.41L700.356 622.124C699.362 622.29 698.209 621.811 697.786 621.058C697.786 621.058 697.568 620.685 696.998 619.849C696.799 619.564 696.799 619.564 696.799 619.564C696.563 619.264 696.818 618.304 697.355 617.431L699.683 613.678C700.22 612.805 700.156 611.608 699.528 611.018L694.885 607.21C694.173 606.708 692.875 606.801 692.016 607.403L688.275 610.009C687.404 610.618 686.123 610.849 685.415 610.542C684.702 610.227 682.806 608.784 682.861 607.86L683.099 603.872C683.154 602.948 682.44 602.064 681.512 601.918L674.964 601.269C674.005 601.228 672.798 601.92 672.282 602.805L670.081 606.603C669.566 607.488 668.452 608.296 667.6 608.399C666.747 608.502 664.124 608.31 663.684 607.579L661.765 604.421C661.319 603.681 660.161 603.355 659.182 603.684L652.491 606.36C651.541 606.796 650.754 607.909 650.726 608.829L650.634 612.789C650.611 613.718 649.863 614.931 648.978 615.487C648.978 615.487 648.533 615.772 647.518 616.494C647.171 616.745 647.171 616.745 647.171 616.745C646.796 617.025 645.82 616.981 644.985 616.629L641.421 615.136C640.591 614.794 639.291 615.098 638.529 615.825L633.493 621.093C632.809 621.883 632.64 623.111 633.119 623.831L635.174 626.917C635.653 627.637 635.641 628.83 635.168 629.578C634.695 630.326 632.759 632.453 631.766 632.594L627.525 633.172C626.543 633.306 625.448 634.176 625.098 635.096L623.073 641.566C622.834 642.503 623.333 643.531 624.181 643.851L627.819 645.212C628.666 645.531 629.304 646.437 629.242 647.241C629.181 648.045 628.437 650.615 627.567 651.198L623.782 653.696C622.896 654.277 622.31 655.465 622.466 656.345L623.999 662.274C624.274 663.105 625.312 663.642 626.295 663.483L630.536 662.769C631.53 662.603 632.683 663.081 633.101 663.825C633.101 663.825 633.318 664.198 633.889 665.034C634.088 665.319 634.088 665.319 634.088 665.319C634.313 665.626 634.068 666.579 633.521 667.459L631.192 671.212C630.656 672.085 630.719 673.282 631.347 673.872L635.991 677.68C636.703 678.182 638 678.089 638.86 677.487L642.596 674.872C643.466 674.263 644.747 674.032 645.455 674.338C646.164 674.645 648.06 676.088 648.009 677.02L647.772 681.009C647.716 681.933 648.43 682.816 649.359 682.962L655.907 683.612C656.866 683.652 658.073 682.961 658.588 682.076L660.789 678.278C661.305 677.392 662.419 676.585 663.26 676.488C664.112 676.385 666.725 676.584 667.176 677.308L669.095 680.466C669.54 681.206 670.699 681.532 671.677 681.203L678.352 678.525C679.302 678.089 680.09 676.976 680.118 676.056L680.215 672.08C680.244 671.16 680.987 669.938 681.882 669.376C681.882 669.376 682.328 669.09 683.342 668.368C683.689 668.117 683.689 668.117 683.689 668.117C684.06 667.828 685.04 667.881 685.871 668.223L689.435 669.717C690.265 670.059 691.564 669.755 692.327 669.028L697.363 663.76C698.047 662.969 698.215 661.742 697.737 661.022L695.692 657.929C695.214 657.209 695.225 656.016 695.698 655.268C696.171 654.521 698.107 652.393 699.1 652.252L703.341 651.674C704.323 651.54 705.418 650.67 705.764 649.741L707.789 643.271C708.027 642.334 707.528 641.306 706.681 640.986L703.042 639.625C702.195 639.305 701.552 638.391 701.619 637.596C701.7 636.854 702.439 634.275 703.324 633.694ZM677.613 664.881C662.958 673.881 645.583 671.146 638.875 658.784C632.166 646.421 638.629 629.046 653.283 620.046C667.937 611.046 685.312 613.781 692.021 626.143C698.724 638.496 692.267 655.881 677.613 664.881Z" fill="#FA7921" fill-opacity="0.28"/>
<path d="M1475.45 166.177L1487.3 159.336L1440.35 142.406L1431.54 191.529L1443.39 184.688L1468.03 227.37L1500.09 208.859L1475.45 166.177Z" fill="#FA7921" fill-opacity="0.28"/>
<path d="M1316.01 271.118L1304.16 277.958L1351.1 294.879L1359.93 245.76L1348.07 252.607L1323.42 209.915L1291.36 228.426L1316.01 271.118Z" fill="#FA7921" fill-opacity="0.28"/>
<path d="M886.515 487.253L886.538 487.24L891.542 487.576L917.909 536.171C919.201 538.553 922.528 539.076 925.351 537.342L973.916 507.508C976.739 505.774 977.976 502.446 976.684 500.065L950.317 451.47L952.545 446.691L952.567 446.677L950.25 442.407L884.177 482.997L886.493 487.267L886.515 487.253ZM934.733 466.612L940.896 462.826L963.574 504.621L957.411 508.407L934.733 466.612ZM920.125 475.586L926.288 471.8L948.966 513.595L942.803 517.381L920.125 475.586ZM905.506 484.567L911.669 480.781L934.346 522.576L928.183 526.362L905.506 484.567Z" fill="#FA7921" fill-opacity="0.28"/>
<path d="M940.669 435.259L920.456 447.294L918.288 443.411C917.795 442.527 916.526 442.331 915.438 442.979L899.742 452.325C898.665 452.967 898.193 454.199 898.687 455.082L900.855 458.966L880.642 471.002C879.999 471.384 879.708 472.124 880.007 472.659L881.715 475.718L944.084 438.581L942.376 435.522C942.077 434.987 941.322 434.87 940.669 435.259ZM916.347 448.439L903.873 455.867L903.275 454.796C903.119 454.515 903.27 454.119 903.612 453.916L914.843 447.229C915.184 447.025 915.592 447.088 915.749 447.368L916.347 448.439Z" fill="#FA7921" fill-opacity="0.28"/>
<path d="M381.059 761.959C359.121 775.433 349.478 801.36 359.526 819.877C369.569 838.384 395.496 842.465 417.434 828.991C439.372 815.518 449.015 789.59 438.973 771.083C428.941 752.569 403.008 748.479 381.059 761.959ZM378.347 769L387.971 763.089L401.318 787.685L391.694 793.596L378.347 769ZM413.748 822.198C396.303 832.912 375.601 829.662 367.61 814.936C361.248 803.213 364.834 787.715 375.373 776.473L379.315 783.739C373.096 791.846 371.308 802.101 375.608 810.024C381.577 821.025 397.047 823.46 410.087 815.451C423.126 807.443 428.88 791.973 422.911 780.972C418.606 773.039 409.365 769.559 399.66 771.244L395.718 763.978C410.138 759.891 424.552 764.346 430.908 776.06C438.899 790.787 431.204 811.477 413.748 822.198Z" fill="#FA7921" fill-opacity="0.28"/>
<path d="M540.522 675.169C538.472 671.3 534.411 669.198 529.825 669.095C529.144 669.079 528.584 669.822 528.874 670.349L533.343 678.474L528.092 686.646L518.743 687.34L514.274 679.215C513.984 678.688 513.092 678.826 512.765 679.454C510.622 683.566 510.27 688.178 512.278 691.943C514.879 696.843 520.681 698.928 526.725 697.678L544.897 730.716C540.955 735.477 539.71 741.647 542.252 746.44C544.302 750.309 548.363 752.41 552.95 752.513C553.63 752.53 554.19 751.786 553.9 751.26L549.431 743.134L554.682 734.962L564.031 734.268L568.501 742.393C568.79 742.92 569.683 742.782 570.009 742.154C572.152 738.042 572.505 733.43 570.497 729.666C567.895 724.765 562.082 722.687 556.049 723.93L537.878 690.892C541.819 686.131 543.07 679.971 540.522 675.169Z" fill="#FA7921" fill-opacity="0.28"/>
<path d="M521.441 718.475L516.93 721.182L504.637 699.111L505.182 695.363L497.351 687.009L492.588 689.868L495.655 701.08L499.056 702.461L511.349 724.532L506.838 727.239C506.225 727.608 505.991 728.369 506.31 728.943L507.303 730.726C507.623 731.3 508.375 731.469 508.989 731.101L509.241 730.95C509.06 732.67 509.36 734.419 510.226 735.974L524.058 760.807C526.396 765.006 531.926 766.232 536.401 763.546L537.002 763.185C541.477 760.5 543.213 754.913 540.874 750.715L527.043 725.881C526.177 724.326 524.861 723.174 523.339 722.488L523.592 722.337C524.206 721.969 524.44 721.207 524.12 720.633L523.127 718.851C522.807 718.276 522.055 718.107 521.441 718.475ZM529.406 760.901L527.59 761.991L512.385 734.691L514.201 733.601L529.406 760.901ZM534.651 757.753L532.834 758.843L517.629 731.544L519.446 730.454L534.651 757.753ZM539.895 754.605L538.079 755.695L522.874 728.396L524.69 727.306L539.895 754.605Z" fill="#FA7921" fill-opacity="0.28"/>
<path d="M1080.82 373.512C1079.21 374.504 1077.24 375.934 1074.99 377.76C1072.65 379.656 1071.12 381.128 1070.32 382.25C1069.52 383.371 1068.58 385.53 1067.44 388.845C1066.32 392.063 1065.2 396.721 1064.09 402.712C1062.98 408.671 1062.19 414.298 1061.75 419.429C1061.36 424.024 1061.1 428.954 1060.98 434.126C1058.54 433.42 1056.2 433.093 1054 433.155C1051.21 433.225 1048.84 433.852 1046.96 435.007C1045.04 436.189 1043.32 438.183 1041.86 440.948C1040.33 443.829 1040.05 446.211 1041.03 448.02C1041.77 449.383 1043.63 450.355 1046.74 450.996C1051.24 451.926 1055.06 453.018 1058.1 454.234C1060.35 455.139 1061.85 455.664 1062.66 455.843C1063.59 456.04 1064.61 455.997 1065.7 455.71C1066.73 455.432 1068.29 454.66 1070.46 453.33C1073.43 451.507 1075.3 449.995 1076.2 448.719C1077.09 447.442 1077.6 446.073 1077.73 444.685C1077.85 443.423 1077.81 441.059 1077.64 437.469C1077.17 428.472 1077.73 418.423 1079.27 407.595C1080.81 396.803 1083.11 387.664 1086.09 380.465C1086.83 378.715 1087.24 377.549 1087.34 376.793C1087.47 375.948 1087.32 375.136 1086.91 374.385C1086.4 373.439 1085.55 372.857 1084.41 372.668C1083.27 372.464 1082.05 372.755 1080.82 373.512Z" fill="#FA7921" fill-opacity="0.28"/>
<path d="M1215.52 293.191C1213.46 294.04 1210.91 295.339 1207.93 297.048C1204.83 298.832 1202.75 300.266 1201.57 301.443C1200.4 302.619 1198.77 305 1196.61 308.734C1194.53 312.343 1192.03 317.7 1189.19 324.639C1186.36 331.555 1183.97 338.129 1182.13 344.176C1180.45 349.592 1178.84 355.454 1177.31 361.63C1177.29 361.619 1177.27 361.608 1177.25 361.596C1177.04 362.113 1176.87 362.618 1176.72 363.135C1176.71 363.182 1176.7 363.232 1176.69 363.289C1175.05 368.929 1173.61 378.352 1177.88 382.282C1178.04 382.355 1178.19 382.444 1178.35 382.526C1179.06 382.451 1179.76 382.407 1180.45 382.38C1181.23 382.164 1182.01 381.964 1182.79 381.738C1183.49 381.361 1184.21 380.992 1184.92 380.598C1188.38 377.915 1191.29 375.03 1193.81 371.666C1194.15 370.899 1194.43 370.141 1194.78 369.377C1194.8 369.295 1194.81 369.229 1194.83 369.156C1196.73 358.285 1200.04 346.347 1204.66 333.705C1209.27 321.096 1214.26 310.641 1219.5 302.633C1220.79 300.692 1221.54 299.379 1221.86 298.5C1222.23 297.51 1222.29 296.511 1222.04 295.526C1221.72 294.279 1220.96 293.405 1219.75 292.929C1218.52 292.451 1217.1 292.542 1215.52 293.191Z" fill="#FA7921" fill-opacity="0.28"/>
<path d="M1226.76 335.697C1223.44 334.553 1218.4 333.41 1211.75 332.301C1205.14 331.197 1198.79 330.436 1192.86 330.049C1187.82 329.713 1182.33 329.517 1176.56 329.44C1176.27 329.535 1175.96 329.567 1175.62 329.519C1170.36 328.778 1165.52 329.667 1159.94 331.097C1159.76 331.147 1159.59 331.166 1159.45 331.17C1157.23 332.017 1155.21 333.172 1153.65 334.759C1153.47 335.006 1153.31 335.254 1153.16 335.53C1153.22 336.532 1153.3 337.537 1153.38 338.542C1153.46 338.791 1153.51 339.053 1153.56 339.315C1153.75 339.775 1153.93 340.251 1154.13 340.703C1155.94 343.016 1158.01 344.899 1160.5 346.409C1161.38 346.832 1162.3 347.192 1163.3 347.42C1163.51 347.415 1163.71 347.401 1163.93 347.39C1174.89 346.754 1186.65 347.198 1198.85 348.701C1211.03 350.207 1220.88 352.536 1228.1 355.629C1229.85 356.396 1231.05 356.805 1231.9 356.918C1232.85 357.037 1233.89 356.871 1234.97 356.422C1236.35 355.854 1237.43 354.938 1238.2 353.715C1238.97 352.475 1239.19 351.173 1238.85 349.851C1238.42 348.134 1237.62 346.041 1236.49 343.648C1235.32 341.153 1234.27 339.544 1233.3 338.701C1232.33 337.866 1230.19 336.883 1226.76 335.697Z" fill="#FA7921" fill-opacity="0.28"/>
<path d="M774.934 522.815C757.877 533.287 750.356 553.497 758.167 567.875C763.286 577.299 773.746 581.907 785.136 581.015L796.521 599.715C797.829 601.874 800.86 602.471 803.591 601.248C805.87 603.076 811.184 602.259 816.376 599.071C821.535 595.904 824.85 591.461 824.543 588.448C827.292 586.597 828.55 583.215 827.352 580.761L817.57 560.8C823.739 550.849 825.083 539.145 820.045 529.872C812.217 515.518 791.992 512.342 774.934 522.815ZM822.828 584.85C822.838 584.868 822.813 584.96 822.768 584.987L802.267 597.573C802.211 597.608 802.113 597.592 802.098 597.564L802.041 597.46L821.069 581.253L822.828 584.85ZM820.205 579.527L801.054 595.835L799.622 593.475L818.971 577.007L820.205 579.527ZM818.098 575.262L798.629 591.84L797.198 589.48L816.864 572.742L818.098 575.262ZM806.63 541.764L804.957 561.56L810.874 573.747L815.854 570.69L816.007 570.999L796.21 587.855L793.962 584.13L798.459 581.369L791.488 569.83L774.522 561.476C774.075 561.259 773.939 560.763 774.111 560.279C774.142 560.172 774.184 560.083 774.236 559.988C774.248 559.981 774.242 559.971 774.249 559.955L774.26 559.948C774.382 559.76 774.536 559.577 774.75 559.446L804.57 541.138C804.682 541.069 804.798 541.035 804.903 541.009C805.083 540.898 805.284 540.8 805.498 540.782C806.193 540.684 806.691 541.134 806.63 541.764Z" fill="#FA7921" fill-opacity="0.28"/>
<path d="M802.832 562.929C802.751 562.78 802.731 562.606 802.742 562.437L803.826 549.699L803.815 549.706L803.948 548.267L804.266 544.475L778.135 560.529L781.396 562.135L782.596 562.717L782.585 562.723L793.521 568.115C793.68 568.191 793.8 568.304 793.876 568.444L800.921 580.122L808.809 575.276L802.832 562.929Z" fill="#FA7921" fill-opacity="0.28"/>
<path d="M1003.74 638.92L982.993 651.591L1004.76 691.419L1025.51 678.748L1003.74 638.92Z" fill="#FA7921" fill-opacity="0.28"/>
<path d="M1032.97 640.833L1012.71 653.267L1026.71 679.017L1046.96 666.584L1032.97 640.833Z" fill="#FA7921" fill-opacity="0.28"/>
<path d="M1038.74 599.821L1017.65 612.632L1047.34 666.625L1068.43 653.815L1038.74 599.821Z" fill="#FA7921" fill-opacity="0.28"/>
<path d="M1074.44 656.586L1005.18 696.987L1006.71 699.682L1075.97 659.281L1074.44 656.586Z" fill="#FA7921" fill-opacity="0.28"/>
<path d="M931.207 704.458L883.555 692.144C881.962 691.683 880.191 691.852 878.644 692.759L862.177 702.456C858.835 701.123 854.937 700.138 850.803 699.614C842.775 698.604 835.074 699.545 830.708 702.065C827.784 703.753 826.96 705.772 826.786 707.159C826.405 710.181 828.6 713.232 832.958 715.738C836.923 718.011 842.338 719.676 848.191 720.412C852.69 720.983 857.072 720.93 860.835 720.342L868.25 732.927C869.128 734.424 870.537 735.411 872.078 735.807C872.116 735.826 872.154 735.844 872.202 735.857L919.876 748.185C924.123 749.28 926.034 746.119 927.129 741.873L934.469 713.485C935.586 709.253 935.443 705.558 931.207 704.458ZM869.165 712.473C869.016 713.669 867.901 714.597 866.928 715.186C866.78 715 866.638 714.825 866.521 714.622C865.431 712.734 865.822 710.41 867.31 708.955C868.623 710.173 869.296 711.409 869.165 712.473ZM848.575 717.348C843.113 716.657 838.111 715.145 834.499 713.062C831.376 711.264 829.629 709.199 829.844 707.532C830.004 706.262 831.239 705.305 832.254 704.719C836.072 702.515 843.036 701.73 850.435 702.656C853.398 703.03 856.209 703.654 858.753 704.473C855.786 706.227 854.796 710.047 856.55 713.014L859.176 717.468C855.984 717.849 852.337 717.816 848.575 717.348ZM872.911 716.334C871.936 716.897 870.858 717.046 869.829 716.881C871.514 715.462 872.086 713.967 872.219 712.862C872.438 711.084 871.754 709.313 870.282 707.631C871.999 707.533 873.692 708.356 874.613 709.95C875.912 712.178 875.144 715.044 872.911 716.334Z" fill="#FA7921" fill-opacity="0.28"/>
<path d="M1179.08 544.212L1160.5 555.562L1180 591.234L1198.58 579.884L1179.08 544.212Z" fill="#FA7921" fill-opacity="0.28"/>
<path d="M1165.69 566.046L1147.47 577.227L1161.13 602.346L1179.35 591.164L1165.69 566.046Z" fill="#FA7921" fill-opacity="0.28"/>
<path d="M1151.22 586.092L1133.4 597.041L1142.3 613.448L1160.13 602.499L1151.22 586.092Z" fill="#FA7921" fill-opacity="0.28"/>
<path d="M1146.35 533.234L1153.19 532.105C1154.21 563.427 1122.07 580.316 1122.07 580.316C1155.2 567.4 1159.84 546.967 1161.51 531.69L1168.48 531.105L1158.19 519.001L1146.35 533.234Z" fill="#FA7921" fill-opacity="0.28"/>
<path d="M1203.96 582.242L1141.91 618.439L1143.28 620.854L1205.34 584.657L1203.96 582.242Z" fill="#FA7921" fill-opacity="0.28"/>
<path d="M1274.14 489.278L1255.55 500.635L1275.06 536.335L1293.65 524.979L1274.14 489.278Z" fill="#FA7921" fill-opacity="0.28"/>
<path d="M1299.23 488.912L1280.99 500.1L1294.65 525.228L1312.89 514.039L1299.23 488.912Z" fill="#FA7921" fill-opacity="0.28"/>
<path d="M1323.24 486.752L1305.41 497.708L1314.31 514.124L1332.15 503.168L1323.24 486.752Z" fill="#FA7921" fill-opacity="0.28"/>
<path d="M1336.93 505.472L1274.84 541.693L1276.21 544.108L1338.31 507.887L1336.93 505.472Z" fill="#FA7921" fill-opacity="0.28"/>
<path d="M1297.52 467.796C1268.94 490.263 1242.28 475.388 1242.28 475.388C1265.61 493.829 1286.09 483.563 1300.77 474.39L1303.71 479.744L1311.35 462.884L1294.13 462.934L1297.52 467.796Z" fill="#FA7921" fill-opacity="0.28"/>
<path d="M765.432 757.634C762.208 762.359 759.793 765.521 757.131 766.689C759.276 764.115 762.821 759.23 762.641 752.93C762.622 752.459 761.017 752.749 760.496 752.854C759.975 752.958 759.563 753.443 759.582 753.915C759.722 758.778 758.211 762.275 756.613 764.612C757.02 759.228 755.581 752.95 753.385 748.945L734.188 760.596L714.175 772.742C717.005 777.904 723.581 783.822 729.464 784.952L755.767 768.989C755.762 768.98 755.773 768.974 755.779 768.959C756.983 768.581 758.408 767.988 759.964 767.043C762.495 765.507 765.334 763.066 767.993 759.166C768.3 758.721 767.159 757.387 766.737 757.183C766.33 756.983 765.738 757.189 765.432 757.634Z" fill="#FA7921" fill-opacity="0.28"/>
<path d="M1439.54 407.719C1439.43 407.99 1439.31 408.258 1439.18 408.526C1439.06 408.795 1438.93 409.078 1438.79 409.353C1438.51 409.918 1438.22 410.471 1437.9 411.022L1437.34 433.219L1430.29 424.934L1431.03 419.425C1430.72 419.697 1430.41 419.961 1430.1 420.224C1429.28 420.902 1428.43 421.541 1427.53 422.149C1427.04 422.483 1426.55 422.808 1426.05 423.116C1424.1 424.306 1422.09 425.266 1420.07 426.01L1425.03 428.146L1428.49 438.836L1408.49 427.891C1407.83 427.862 1407.17 427.808 1406.52 427.739L1406.4 428C1397.89 446.843 1407.85 464.639 1408.27 465.388L1408.63 466.02L1468.97 429.18L1468.57 428.525C1456.3 408.443 1442.72 407.617 1439.54 407.719Z" fill="#FA7921" fill-opacity="0.28"/>
<path d="M1401.09 379.309C1388.29 387.176 1382.64 402.358 1388.5 413.163C1394.37 423.969 1409.55 426.359 1422.36 418.492C1435.17 410.625 1440.81 395.444 1434.95 384.638C1429.09 373.841 1413.9 371.442 1401.09 379.309Z" fill="#FA7921" fill-opacity="0.28"/>
<path d="M38.6497 401.616L32.2323 405.472C31.6575 405.818 31.413 406.483 31.6713 406.95L35.844 414.489L-14.3971 444.678L-18.5697 437.139C-18.8329 436.663 -19.5033 436.559 -20.0781 436.905L-26.4954 440.761C-27.0703 441.106 -27.3148 441.771 -27.0564 442.238L-19.4624 455.959C-19.1993 456.435 -18.524 456.547 -17.9492 456.202L47.1959 417.058C47.7707 416.712 48.0153 416.047 47.7521 415.571L40.1581 401.851C39.8997 401.384 39.214 401.277 38.6497 401.616Z" fill="#FA7921" fill-opacity="0.28"/>
<path d="M-16.3323 416.617L2.31216 421.153C3.79915 421.513 6.21566 420.031 6.66624 418.482L12.2958 399.056L17.9144 379.636C18.365 378.088 16.509 377.636 14.5714 378.825L1.8466 386.63L-3.52979 376.731C-3.80384 376.227 -4.51291 376.123 -5.10071 376.484L-26.3921 389.544C-26.9908 389.912 -27.2505 390.609 -26.9765 391.114L-21.6001 401.013L-33.9657 408.598C-35.9032 409.786 -36.4637 411.72 -34.9768 412.08L-16.3323 416.617Z" fill="#FA7921" fill-opacity="0.28"/>
<path d="M538.852 45.5355L477.692 80.846C474.505 82.6866 473.415 86.7542 475.255 89.9421L508.332 147.234C510.173 150.422 514.241 151.512 517.429 149.671L578.588 114.36C581.776 112.52 582.866 108.452 581.026 105.264L547.948 47.9728C546.108 44.7848 542.03 43.7008 538.852 45.5355ZM529.675 56.2757L546.434 85.3021L508.341 107.295L491.582 78.2686L529.675 56.2757ZM520.391 136.279L509.974 142.293L503.96 131.876L514.377 125.862L520.391 136.279ZM508.392 115.496L497.975 121.51L491.961 111.093L502.378 105.079L508.392 115.496ZM496.393 94.7135L485.976 100.728L479.962 90.3109L490.379 84.2968L496.393 94.7135ZM526.606 138.931L509.847 109.904L547.94 87.9114L564.698 116.938L526.606 138.931ZM575.895 104.233L565.479 110.247L559.465 99.8303L569.881 93.8163L575.895 104.233ZM563.896 83.4504L553.48 89.4644L547.466 79.0478L557.882 73.0337L563.896 83.4504ZM551.898 62.6679L541.481 68.6819L535.467 58.2653L545.884 52.2512L551.898 62.6679Z" fill="#FA7921" fill-opacity="0.28"/>
<path d="M397.158 155.635C399.35 155.75 401.59 155.269 403.62 154.096C409.245 150.849 411.164 143.622 407.899 137.967C404.64 132.322 397.406 130.367 391.791 133.608C386.167 136.856 384.237 144.088 387.502 149.743C388.048 150.688 388.723 151.529 389.471 152.262L385.921 160.064L380.286 172.415C378.415 172.48 376.539 172.981 374.813 173.977C369.188 177.225 367.269 184.452 370.534 190.107C373.793 195.751 381.021 197.697 386.636 194.455C389.062 193.054 390.787 190.908 391.723 188.472L402.943 189.548L411.47 190.365C411.73 191.379 412.115 192.374 412.666 193.329C415.926 198.974 423.16 200.929 428.784 197.682C434.409 194.435 436.328 187.208 433.063 181.553C429.804 175.908 422.576 173.962 416.961 177.204C414.931 178.376 413.384 180.082 412.388 182.037L400.174 180.859L391.732 180.047C391.503 179.462 391.253 178.889 390.931 178.331C390.215 177.092 389.296 176.039 388.257 175.177L392.067 166.818L397.158 155.635ZM392.274 181.9L400.098 182.649L411.683 183.771C411.197 185.297 411.005 186.911 411.155 188.53L403.03 187.752L392.237 186.713C392.573 185.139 392.591 183.504 392.274 181.9ZM386.769 174.1C385.379 173.264 383.824 172.727 382.215 172.519L387.52 160.888L390.909 153.462C392.236 154.402 393.735 155.052 395.3 155.394L390.468 165.994L386.769 174.1Z" fill="#FA7921" fill-opacity="0.28"/>
<path d="M159.913 288.543C157.059 289.63 155.223 292.566 155.815 295.108L161.31 318.838L119.363 344.16L90.8676 316.396C89.9479 315.508 88.5989 315.093 87.132 315.268L75.6918 316.642C72.7899 316.996 70.2531 319.501 70.0456 322.238C69.8272 324.981 72.014 326.913 74.9209 326.568L84.0611 325.474L113.089 353.76L109.566 360.822C109.15 361.668 109.128 362.568 109.513 363.279L112.65 369.058C113.337 370.323 115.102 370.618 116.607 369.706L124.396 365.047C123.779 366.546 123.741 368.17 124.467 369.508C125.856 372.066 129.43 372.628 132.462 370.767C135.494 368.905 136.824 365.332 135.436 362.774C134.739 361.491 133.484 360.711 132.021 360.489L168.429 338.703C168.111 339.945 168.187 341.215 168.773 342.295C170.161 344.852 173.736 345.415 176.768 343.553C179.8 341.692 181.13 338.118 179.742 335.561C179.18 334.527 178.248 333.831 177.143 333.489L181.891 330.647C181.902 330.641 181.913 330.634 181.934 330.621C183.434 329.7 184.098 327.938 183.433 326.66C182.764 325.373 180.977 325.066 179.457 325.975L116.892 363.402L115.599 361.02L118.515 355.18C119.002 355.029 119.475 354.825 119.95 354.545L169.496 324.644C169.507 324.637 169.529 324.623 169.54 324.617C171.773 323.246 173.004 320.755 172.51 318.608L166.156 291.172C165.565 288.63 162.767 287.455 159.913 288.543Z" fill="#FA7921" fill-opacity="0.28"/>
<path d="M138.595 302.057L134.057 304.845L128.052 293.782C127.313 292.422 125.416 292.123 123.803 293.114L115.071 298.479C113.469 299.463 112.763 301.36 113.502 302.721L119.507 313.784L114.968 316.572C112.966 317.802 112.899 319.319 114.839 319.942L120.283 321.69C122.222 322.313 125.382 323.325 127.322 323.947L132.765 325.696C134.705 326.318 136.663 325.116 137.126 323.017L138.424 317.127C138.887 315.029 139.642 311.611 140.105 309.513L141.403 303.623C141.855 301.531 140.597 300.827 138.595 302.057Z" fill="#FA7921" fill-opacity="0.28"/>
<path d="M268.886 205.583C267.937 205.603 267.014 205.811 266.145 206.205C265.93 206.301 265.711 206.414 265.498 206.537L264.879 206.895L253.406 213.519L225.507 229.626C222.075 231.608 220.905 236.006 222.881 239.427L224.668 242.524L222.313 243.884C221.684 244.247 221.469 245.048 221.832 245.677L225.127 251.383C225.49 252.013 226.291 252.227 226.92 251.864L229.276 250.504L231.749 254.788L229.394 256.148C228.764 256.512 228.55 257.312 228.913 257.942L232.208 263.648C232.571 264.277 233.372 264.492 234.001 264.128L236.357 262.768L238.83 267.053L236.475 268.413C235.845 268.776 235.631 269.577 235.994 270.206L239.288 275.912C239.652 276.541 240.453 276.756 241.082 276.393L243.437 275.033L245.911 279.317L243.556 280.677C242.926 281.04 242.712 281.841 243.075 282.471L246.369 288.176C246.733 288.806 247.533 289.02 248.163 288.657L250.518 287.297L252.67 291.023C254.651 294.455 259.049 295.625 262.47 293.649L302.462 270.56C302.675 270.437 302.882 270.304 303.074 270.166C303.849 269.61 304.49 268.915 304.982 268.103C305.336 267.52 305.618 266.883 305.792 266.2C306.29 264.343 306.033 262.42 305.072 260.755L275.265 209.129C274.31 207.474 272.757 206.286 270.91 205.782C270.261 205.642 269.568 205.568 268.886 205.583ZM268.652 222.247C268.246 222.129 267.848 222.143 267.443 222.403C267.078 222.614 266.814 222.956 266.713 223.366L264.804 230.587L255.846 215.142L266.882 208.771L275.852 224.236L268.652 222.247Z" fill="#FA7921" fill-opacity="0.28"/>
<path d="M673.46 -27.4504L615.916 8.17172C611.403 10.9657 609.358 16.2574 611.367 19.9904L636.922 67.4674C638.927 71.1912 644.216 71.9543 648.741 69.1534L706.285 33.5313C710.798 30.7373 712.833 25.4525 710.823 21.7195L685.268 -25.7575C683.258 -29.4905 677.974 -30.2444 673.46 -27.4504ZM668.538 44.9559C669.208 46.2002 668.53 47.9618 667.022 48.8954L647.793 60.7992C646.284 61.7328 644.523 61.4815 643.853 60.2372L635.313 44.3719C634.643 43.1276 635.322 41.3659 636.83 40.4323L656.059 28.5286C657.567 27.5949 659.329 27.8462 659.999 29.0906L668.538 44.9559ZM653.887 17.736C654.557 18.9803 653.878 20.7419 652.37 21.6756L633.141 33.5793C631.633 34.5129 629.871 34.2616 629.201 33.0173L620.662 17.152C619.992 15.9077 620.665 14.1369 622.173 13.2033L641.402 1.29953C642.911 0.365899 644.672 0.617193 645.347 1.87068L653.887 17.736ZM701.53 24.5327C702.2 25.777 701.521 27.5387 700.013 28.4723L680.784 40.376C679.276 41.3097 677.514 41.0584 676.844 39.814L668.305 23.9487C667.635 22.7044 668.313 20.9428 669.821 20.0092L689.05 8.1054C690.559 7.17177 692.32 7.42307 692.99 8.66741L701.53 24.5327ZM686.878 -2.68717C687.548 -1.44284 686.87 0.318775 685.362 1.25241L666.132 13.1562C664.624 14.0898 662.863 13.8385 662.193 12.5942L653.653 -3.27114C652.983 -4.51548 653.656 -6.28624 655.165 -7.21987L674.394 -19.1236C675.902 -20.0573 677.664 -19.806 678.338 -18.5525L686.878 -2.68717Z" fill="#FA7921" fill-opacity="0.28"/>
<path d="M674.522 -8.70433L659.217 0.532104L661.08 3.91472L676.385 -5.32172L674.522 -8.70433Z" fill="#FA7921" fill-opacity="0.28"/>
<path d="M691.556 20.7993L676.251 30.0358L678.114 33.4184L693.419 24.1819L691.556 20.7993Z" fill="#FA7921" fill-opacity="0.28"/>
<path d="M682.695 19.25L679.232 21.3933L680.711 24.1406L684.174 21.9973L682.695 19.25Z" fill="#FA7921" fill-opacity="0.28"/>
<path d="M688.955 30.093L685.492 32.2363L686.971 34.9836L690.434 32.8403L688.955 30.093Z" fill="#FA7921" fill-opacity="0.28"/>
<path d="M655.722 36.2309L653.41 42.2363L647.416 41.3728L645.671 45.9048L651.677 46.7615L649.36 52.7578L653.892 53.4043L656.198 47.4149L662.198 48.2624L663.943 43.7304L657.943 42.8828L660.254 36.8774L655.722 36.2309Z" fill="#FA7921" fill-opacity="0.28"/>
<path d="M636.144 6.91656L631.738 9.62216L634.404 14.5341L628.592 18.1033L630.604 21.8104L636.415 18.2412L639.081 23.1531L643.486 20.4475L640.821 15.5356L646.632 11.9664L644.62 8.25927L638.809 11.8285L636.144 6.91656Z" fill="#FA7921" fill-opacity="0.28"/>
<path d="M778.06 -51.4124L779.211 -55.0282C780.161 -58.0159 779.888 -60.9424 778.42 -63.2706C776.963 -65.6056 774.504 -67.0667 771.483 -67.3814L765.901 -67.9725C763.094 -68.2706 760.078 -67.5278 757.414 -65.8921C754.378 -64.0277 752.054 -61.1462 751.044 -57.9988L749.882 -54.3763C749.737 -53.9172 749.606 -53.4303 749.524 -52.9359L749.47 -52.7669C748.118 -49.8169 748.351 -44.7826 752.016 -40.6964C769.04 -21.6876 800.244 -18.3997 827.92 -32.7065C831.551 -34.5788 834.497 -37.2016 836.288 -40.0147C837.02 -41.1173 837.576 -42.2475 837.951 -43.4147L839.112 -47.0372C841.074 -53.1974 837.613 -58.7399 831.385 -59.3904L825.803 -59.9815C822.996 -60.2796 819.979 -59.5367 817.305 -57.8944C814.268 -56.0299 811.944 -53.1484 810.945 -50.0077L809.784 -46.3852C809.293 -44.8389 809.13 -43.3086 809.301 -41.8357L809.378 -41.1808L808.654 -41.0073C796.321 -38.0692 784.237 -39.4385 774.621 -44.8505L773.986 -45.2126L774.598 -45.835C776.222 -47.4483 777.412 -49.375 778.06 -51.4124Z" fill="#FA7921" fill-opacity="0.28"/>
<path d="M176.835 487.102C175.262 487.702 173.885 488.981 173.282 490.597C172.345 493.108 173.625 495.461 176.148 495.866C176.164 495.868 176.201 495.857 176.233 495.862C176.227 495.878 176.216 495.885 176.216 495.885L188.35 497.792L195.457 478.741L176.832 487.043C176.815 487.066 176.825 487.084 176.835 487.102Z" fill="#FA7921" fill-opacity="0.28"/>
<path d="M247.596 503.391C247.623 503.387 247.652 503.357 247.691 503.346L237.067 490.494L229.727 510.222L241.808 512.119C241.814 512.103 241.838 512.063 241.839 512.038C242.029 512.085 242.19 512.162 242.386 512.193C244.998 512.603 247.893 510.812 248.865 508.202C249.604 506.237 249.032 504.385 247.596 503.391Z" fill="#FA7921" fill-opacity="0.28"/>
<path d="M218.645 485.241L213.248 484.391C212.335 484.247 211.366 484.485 210.542 484.991C209.718 485.497 209.04 486.271 208.689 487.191L204.996 497.12L204.437 498.625C204.097 499.538 204.156 500.428 204.538 501.133C204.915 501.828 205.611 502.327 206.524 502.471L211.92 503.32C212.833 503.464 213.803 503.227 214.627 502.721C215.461 502.208 216.128 501.44 216.479 500.52L220.738 489.07C221.077 488.158 221.019 487.267 220.636 486.563C220.253 485.884 219.569 485.377 218.645 485.241Z" fill="#FA7921" fill-opacity="0.28"/>
<path d="M244.394 454.862L244.442 454.869L240.85 424.608C240.852 424.261 240.805 423.932 240.72 423.613L240.726 423.597C240.372 422.27 239.304 421.246 237.74 421.009C236.122 420.754 234.392 421.397 233.12 422.561L233.115 422.552L233.065 422.595C232.87 422.776 232.703 422.953 232.534 423.156L208.648 448.252C207.771 449.038 207.008 449.952 206.586 451.063L195.764 480.157L187.98 501.085L186.664 504.624C185.515 507.714 187.094 510.623 190.2 511.112L195.004 511.868L194.913 513.752L210.221 516.162L211.469 514.468L216.417 515.247C219.523 515.736 222.972 513.618 224.117 510.518L225.433 506.98L233.175 486.164L244.032 456.974C244.317 456.231 244.407 455.533 244.394 454.862ZM215.87 500.746C214.887 503.388 211.943 505.196 209.301 504.78L203.905 503.93C201.263 503.515 199.911 501.022 200.899 498.389L201.458 496.884L205.151 486.957C206.134 484.315 209.077 482.507 211.719 482.923L217.115 483.772C219.757 484.188 221.105 486.671 220.122 489.313L215.87 500.746ZM218.786 471.602C214.03 470.854 211.606 466.388 213.375 461.632C215.144 456.877 220.427 453.632 225.194 454.374C229.95 455.122 232.368 459.579 230.599 464.335C228.825 469.106 223.541 472.351 218.786 471.602Z" fill="#FA7921" fill-opacity="0.28"/>
<path d="M896.422 115.042C917.991 101.263 928.098 78.2761 919.018 62.5497C909.563 46.1734 882.896 43.8769 859.464 57.4056C836.021 70.9402 824.692 95.187 834.141 111.553C841.334 124.01 858.478 128.312 876.58 123.723L880.402 146.451L896.422 115.042ZM844.961 92.4736L897.44 62.1747L898.847 64.6113L846.368 94.9102L844.961 92.4736ZM850.272 101.672L902.751 71.373L904.158 73.8096L851.678 104.109L850.272 101.672ZM856.989 113.307L855.582 110.87L883.715 94.6275L885.122 97.0642L856.989 113.307Z" fill="#FA7921" fill-opacity="0.28"/>
<path d="M51.5657 518.453L53.2229 521.527L45.6495 526.205C44.7631 526.753 44.3615 527.794 44.7551 528.524L53.692 545.101C54.0857 545.832 55.1287 545.98 56.0152 545.433L87.0747 526.245C87.9612 525.698 88.3628 524.657 87.9691 523.926L79.0322 507.349C78.6386 506.619 77.5955 506.47 76.709 507.018L69.1357 511.696L67.4785 508.623L65.8369 509.637L67.4941 512.711L54.8645 520.513L53.2074 517.439L51.5657 518.453ZM79.6672 526.279L59.7488 538.584L58.7963 536.817L78.7256 524.506L79.6781 526.272L79.6672 526.279ZM71.3553 515.841C72.997 514.827 74.9092 515.099 75.6382 516.451C76.3623 517.794 75.626 519.703 73.9844 520.717C72.3537 521.725 70.4305 521.459 69.7064 520.116C68.9933 518.766 69.7247 516.848 71.3553 515.841ZM59.7254 526.282C60.4495 527.625 59.7132 529.534 58.0826 530.541C56.4409 531.555 54.5396 531.276 53.8155 529.933C53.0866 528.58 53.8228 526.672 55.4535 525.664C57.0842 524.657 59.0013 524.939 59.7254 526.282Z" fill="#FA7921" fill-opacity="0.28"/>
<path d="M54.6943 550.705L48.0593 554.765L56.409 570.071L63.044 566.012L54.6943 550.705Z" fill="#FA7921" fill-opacity="0.28"/>
<path d="M64.6416 567.934L58.0063 571.994L66.3616 587.311L72.9969 583.251L64.6416 567.934Z" fill="#FA7921" fill-opacity="0.28"/>
<path d="M78.04 594.489L79.091 596.44C81.4394 593.988 82.2749 590.616 80.9081 588.079C79.2058 584.919 74.7285 584.268 70.914 586.624C67.0996 588.981 65.3854 593.458 67.0878 596.617C68.4546 599.154 71.5993 600.068 74.7569 599.118L73.7059 597.167C71.8298 597.459 70.0739 596.799 69.2548 595.278C68.0854 593.108 69.2608 590.038 71.8811 588.419C74.5015 586.8 77.5717 587.247 78.7411 589.418C79.5712 590.931 79.2265 592.89 78.04 594.489Z" fill="#FA7921" fill-opacity="0.28"/>
<path d="M100.748 524.117L94.1017 528.183L102.45 543.489L109.097 539.422L100.748 524.117Z" fill="#FA7921" fill-opacity="0.28"/>
<path d="M110.695 541.346L104.049 545.412L112.403 560.728L119.05 556.661L110.695 541.346Z" fill="#FA7921" fill-opacity="0.28"/>
<path d="M124.083 567.907L125.134 569.858C127.482 567.406 128.317 564.033 126.951 561.496C125.248 558.337 120.771 557.685 116.957 560.042C113.142 562.398 111.428 566.875 113.13 570.035C114.497 572.572 117.642 573.485 120.799 572.535L119.748 570.585C117.872 570.877 116.105 570.223 115.286 568.703C114.117 566.532 115.292 563.462 117.913 561.844C120.533 560.225 123.603 560.672 124.773 562.842C125.603 564.355 125.258 566.314 124.083 567.907Z" fill="#FA7921" fill-opacity="0.28"/>
<path d="M55.9237 551.57C55.0382 552.116 54.637 553.156 55.0302 553.886L67.7056 577.393C68.0988 578.122 69.1408 578.27 70.0263 577.723L107.81 554.388C108.696 553.841 109.097 552.801 108.704 552.072L96.0282 528.565C95.635 527.836 94.593 527.687 93.7075 528.234L55.9237 551.57ZM97.5104 550.26C98.0929 551.34 97.5021 552.893 96.1793 553.71L88.6903 558.336L91.5167 551.009C91.8388 550.174 91.4165 549.391 90.5797 549.272C89.7321 549.159 88.7918 549.74 88.4697 550.575L84.4702 560.942L75.2757 566.621C73.9529 567.438 72.4057 567.217 71.8183 566.128L68.1045 559.24C67.5171 558.151 68.1128 556.607 69.4357 555.79L90.3392 542.88C91.662 542.063 93.2092 542.283 93.7966 543.373L97.5104 550.26Z" fill="#FA7921" fill-opacity="0.28"/>
<path d="M90.311 570.594L79.7185 577.153L87.0354 590.735L97.6279 584.176L90.311 570.594Z" fill="#FA7921" fill-opacity="0.28"/>
<path d="M99.219 586.828L89.0915 593.082L92.4068 599.233L102.534 592.979L99.219 586.828Z" fill="#FA7921" fill-opacity="0.28"/>
<path d="M91.34 602.366C89.7818 603.315 89.17 605.274 89.9656 606.731C90.766 608.197 92.6771 608.618 94.2353 607.67L105.387 600.879C106.945 599.93 107.568 597.965 106.767 596.499C105.972 595.042 104.06 594.62 102.492 595.576L91.34 602.366Z" fill="#FA7921" fill-opacity="0.28"/>
<path d="M104.241 562.552L93.6481 569.111L100.965 582.693L111.557 576.133L104.241 562.552Z" fill="#FA7921" fill-opacity="0.28"/>
<path d="M113.148 578.786L103.021 585.04L106.336 591.19L116.464 584.937L113.148 578.786Z" fill="#FA7921" fill-opacity="0.28"/>
<path d="M108.894 592.231C107.336 593.18 106.714 595.145 107.509 596.602C108.31 598.068 110.221 598.49 111.79 597.534L122.941 590.744C124.499 589.795 125.122 587.83 124.321 586.364C123.526 584.907 121.604 584.492 120.046 585.441L108.894 592.231Z" fill="#FA7921" fill-opacity="0.28"/>
<path d="M729.61 219.379L729.758 228.505C729.774 228.966 730.083 229.319 730.547 229.392C730.851 229.44 731.187 229.358 731.473 229.182C731.627 229.088 731.754 228.972 731.872 228.838L738.418 220.765C738.514 220.645 738.599 220.505 738.653 220.361L751.019 187.115L742.034 185.701L729.669 218.947C729.631 219.094 729.604 219.234 729.61 219.379ZM743.579 188.521L747.695 189.169L736.324 219.74L732.303 224.693L732.208 219.093L743.579 188.521Z" fill="#FA7921" fill-opacity="0.28"/>
<path d="M739.532 145.747L730.446 170.177C729.309 170.541 728.144 171.096 726.946 171.832C723.273 174.088 719.625 177.875 716.101 183.106C715.88 183.428 715.812 183.816 715.924 184.131C716.036 184.445 716.302 184.665 716.666 184.714L737.792 188.039L737.786 188.055L746.779 189.471L746.785 189.455L769.504 193.039C769.808 193.087 770.145 193.004 770.43 192.828C770.474 192.801 770.529 192.768 770.568 192.731C770.889 192.485 771.09 192.126 771.13 191.768C772.262 179.805 768.119 176.141 766.148 175.075L774.99 151.302L739.532 145.747Z" fill="#FA7921" fill-opacity="0.28"/>
<path d="M776.965 150.899C777.544 150.914 778.187 150.507 778.396 149.946L781.392 141.891C781.624 141.267 781.302 140.674 780.678 140.575L736.08 133.556C735.471 133.46 734.735 133.912 734.52 134.514L731.524 142.569C731.291 143.193 731.613 143.786 732.238 143.885L736.743 144.602L736.737 144.618L776.965 150.899Z" fill="#FA7921" fill-opacity="0.28"/>
<path d="M504.107 325.355C498.386 332.421 497.217 340.947 501.502 344.43C505.775 347.892 513.893 344.978 519.608 337.902C524.527 331.813 526.077 324.651 523.673 320.556L523.677 320.54L494.574 270.132L455.313 304.17L459.152 310.82L462.042 315.826L464.727 320.476L468.267 326.608L481.649 349.786C478.03 350.739 474.072 353.403 470.855 357.373C465.134 364.439 463.97 372.975 468.243 376.437C472.522 379.91 480.635 376.986 486.356 369.919C491.344 363.764 492.866 356.482 490.338 352.432L490.342 352.416L473.05 322.466L502.751 296.722L514.902 317.769C511.283 318.721 507.315 321.391 504.107 325.355ZM469.51 316.333L466.819 311.673L496.52 285.93L499.21 290.59L469.51 316.333Z" fill="#FA7921" fill-opacity="0.28"/>
<path d="M626.94 206.503C626.924 206.499 626.924 206.499 626.908 206.494L623.953 205.385C618.654 203.381 612.79 203.87 607.866 206.713C607.866 206.713 607.866 206.713 607.856 206.719C604.099 208.888 601.19 212.313 599.658 216.365L592.599 235.088C590.596 240.387 591.084 246.251 593.927 251.175C595.111 253.226 596.673 255.017 598.57 256.521C598.94 256.809 599.109 257.266 599.031 257.717C598.953 258.168 598.629 258.545 598.196 258.687C597.84 258.797 597.524 258.953 597.214 259.118C596.168 259.722 595.364 260.674 594.943 261.797L593.013 266.918C591.009 272.217 591.498 278.081 594.341 283.005C596.509 286.761 599.941 289.68 604.003 291.207L606.991 292.325C612.29 294.328 618.153 293.84 623.067 291.002L623.077 290.997C626.834 288.828 629.743 285.402 631.275 281.35L638.334 262.627C640.338 257.328 639.849 251.465 637.006 246.541C635.822 244.49 634.26 242.698 632.363 241.194C631.999 240.917 631.824 240.449 631.902 239.998C631.98 239.547 632.304 239.17 632.737 239.029C633.087 238.908 633.431 238.777 633.719 238.597C634.762 238.035 635.569 237.042 635.99 235.919L637.92 230.797C638.142 230.196 638.341 229.58 638.508 228.955C639.794 224.125 639.107 219.066 636.587 214.7C634.418 210.944 630.986 208.025 626.94 206.503ZM629.072 255.94C629.077 256.98 628.895 257.978 628.537 258.93L621.478 277.652C620.78 279.49 619.524 280.973 617.818 281.958C615.615 283.23 613.002 283.439 610.648 282.551L607.671 281.427C605.838 280.739 604.349 279.473 603.365 277.768C602.093 275.565 601.883 272.951 602.771 270.597L604.702 265.476C605.129 264.363 605.143 263.123 604.77 261.984C604.617 261.531 604.744 261.025 605.092 260.689C605.439 260.353 605.948 260.249 606.399 260.421L606.577 260.494C611.886 262.492 617.756 262.014 622.67 259.177C623.583 258.649 624.46 258.035 625.276 257.361C625.882 256.862 626.353 256.224 626.69 255.448C626.93 254.903 627.506 254.611 628.091 254.734C628.654 254.842 629.068 255.347 629.072 255.94ZM617.037 246.536L617.034 246.484C617.227 246.467 617.394 246.452 617.515 246.45C617.798 246.449 618.088 246.458 618.373 246.483L618.674 246.512C618.69 246.516 618.716 246.514 618.732 246.519C619.256 246.582 619.732 246.984 619.832 247.508C619.941 248.027 619.743 248.575 619.276 248.844C619.043 248.979 618.821 249.134 618.601 249.316C618.591 249.321 618.591 249.321 618.591 249.321C618.225 249.627 617.821 249.888 617.431 250.126C615.827 251.052 613.922 251.435 612.084 251.183C611.555 251.109 611.137 250.714 611.027 250.196C610.928 249.671 611.164 249.142 611.615 248.868C611.858 248.728 612.09 248.567 612.31 248.385C612.93 247.865 613.656 247.433 614.455 247.106C614.871 246.934 615.313 246.787 615.806 246.679L615.998 246.636C616.216 246.591 616.413 246.558 616.617 246.535C616.643 246.534 616.669 246.532 616.705 246.525L616.987 246.497C616.997 246.492 617.003 246.502 617.013 246.496L617.005 246.528C617.021 246.532 617.037 246.536 617.037 246.536ZM628.15 227.098L626.22 232.219C625.799 233.342 625.778 234.572 626.151 235.711C626.304 236.164 626.177 236.67 625.83 237.006C625.75 237.079 625.675 237.136 625.583 237.189C625.268 237.371 624.872 237.41 624.522 237.274L624.344 237.201C623.855 237.009 623.325 236.842 622.668 236.666L622.29 236.573C621.693 236.43 621.14 236.316 620.599 236.223L620.424 236.202C620.392 236.193 620.366 236.195 620.334 236.186C619.762 236.11 619.266 236.071 618.776 236.043C618.76 236.039 618.75 236.045 618.734 236.04L618.523 236.027C617.928 236.005 617.329 235.999 616.743 236.039L616.612 236.047C616.602 236.053 616.596 236.043 616.586 236.049C615.356 236.122 614.128 236.317 612.929 236.63C612.918 236.636 612.908 236.642 612.902 236.632C610.167 237.358 607.727 238.618 605.661 240.339C605.056 240.837 604.585 241.475 604.248 242.251C604.007 242.796 603.421 243.094 602.846 242.966C602.271 242.838 601.858 242.332 601.849 241.755C601.845 240.715 602.026 239.717 602.384 238.766L609.443 220.043C610.132 218.211 611.397 216.722 613.093 215.743C613.103 215.737 613.123 215.725 613.133 215.719C615.338 214.474 617.926 214.266 620.263 215.15L623.246 216.284C625.079 216.972 626.568 218.238 627.552 219.943C628.823 222.12 629.032 224.734 628.15 227.098Z" fill="#FA7921" fill-opacity="0.28"/>
<path d="M978.886 4.25643C978.405 6.32744 978.074 8.45596 977.914 10.603C981.881 10.2647 986.066 9.40701 990.325 8.03271C990.153 7.41793 989.975 6.81926 989.82 6.20701C988.296 0.251356 987.747 -5.23562 988.276 -9.82035C988.454 -11.4194 988.767 -12.9034 989.249 -14.2673C987.555 -12.6428 986.038 -10.8541 984.704 -8.91731C981.981 -4.9844 980.021 -0.514092 978.886 4.25643Z" fill="#FA7921" fill-opacity="0.28"/>
<path d="M994.123 11.8266C995.471 16.0442 997.324 20.4557 999.657 24.8607L1026.41 8.54403C1023.97 4.20424 1021.29 0.30101 1018.51 -3.04343C1015.07 0.0884364 1011.21 3.00528 1006.97 5.59223C1002.73 8.17918 998.395 10.2603 994.123 11.8266Z" fill="#FA7921" fill-opacity="0.28"/>
<path d="M1021.19 31.6839C1025.58 29.006 1030.06 26.8737 1034.49 25.2831C1033.14 21.0748 1031.29 16.6637 1028.95 12.2745L1002.2 28.5897C1004.6 32.8665 1007.25 36.7132 1009.98 40.0256C1013.33 37.0039 1017.09 34.1859 1021.19 31.6839Z" fill="#FA7921" fill-opacity="0.28"/>
<path d="M984.221 33.7293L998.794 24.7776C996.263 19.9791 994.267 15.1786 992.818 10.5674C989.286 11.7225 985.797 12.5494 982.42 13.0327C981.468 13.1667 980.544 13.2707 979.609 13.3559C979.43 20.1951 980.915 27.2273 984.221 33.7293Z" fill="#FA7921" fill-opacity="0.28"/>
<path d="M1000.86 51.4933C1003.32 47.7746 1006.33 44.1238 1009.83 40.6966C1006.86 37.0949 1004 32.9073 1001.4 28.2642L986.837 37.2111C990.414 43.4174 995.304 48.241 1000.86 51.4933Z" fill="#FA7921" fill-opacity="0.28"/>
<path d="M996.663 -18.2728C995.631 -18.1564 994.72 -17.8434 993.909 -17.3456C993.098 -16.8478 992.399 -16.1719 991.777 -15.2725C991.166 -14.3799 990.653 -13.252 990.268 -11.9435C989.502 -9.31724 989.259 -5.91566 989.611 -2.06563C989.894 1.14834 990.589 4.68897 991.652 8.39752C995.913 6.82854 1000.24 4.75369 1004.49 2.1436C1008.74 -0.466494 1012.59 -3.41004 1016 -6.54999C1015.56 -7.04893 1015.12 -7.54112 1014.69 -8.01485C1010.75 -12.2356 1006.72 -15.3294 1003.1 -16.9639C1000.7 -18.0519 998.48 -18.4769 996.663 -18.2728Z" fill="#FA7921" fill-opacity="0.28"/>
<path d="M1013.92 45.1273C1017.86 49.365 1021.9 52.4436 1025.5 54.0851C1027.92 55.1759 1030.14 55.601 1031.95 55.4036C1032.98 55.2964 1033.88 54.9901 1034.71 54.4854C1035.52 53.9875 1036.23 53.3047 1036.83 52.4026C1037.44 51.5097 1037.96 50.3816 1038.34 49.0728C1039.11 46.4459 1039.34 43.0502 1039 39.1926C1038.71 35.9686 1038.03 32.4204 1036.95 28.7084C1032.53 30.2871 1028.06 32.4155 1023.66 35.1204C1019.55 37.6437 1015.8 40.4769 1012.46 43.52C1012.96 44.0796 1013.44 44.6114 1013.92 45.1273Z" fill="#FA7921" fill-opacity="0.28"/>
<path d="M1008.77 58.7106C1006.7 58.0911 1004.69 57.2636 1002.74 56.262C1001.77 57.9021 1000.93 59.5437 1000.2 61.187C1007.67 62.8561 1016 62.4432 1024.31 59.8245C1023.93 59.8896 1023.54 59.9455 1023.15 60.0013C1018.28 60.583 1013.41 60.1175 1008.77 58.7106Z" fill="#FA7921" fill-opacity="0.28"/>
<path d="M1040.33 46.9445C1040.14 48.5507 1039.83 50.0349 1039.36 51.3922C1041.05 49.7674 1042.57 47.9784 1043.9 46.0412C1046.63 42.1169 1048.6 37.6297 1049.71 32.8718C1050.2 30.8351 1050.52 28.7384 1050.67 26.6324C1046.71 26.9386 1042.53 27.7549 1038.27 29.0948C1038.44 29.7097 1038.61 30.3153 1038.78 30.9209C1040.32 36.8802 1040.85 42.375 1040.33 46.9445Z" fill="#FA7921" fill-opacity="0.28"/>
<path d="M973.342 9.88664C974.121 9.90887 974.913 9.89945 975.721 9.86758C976.302 2.5694 978.727 -4.48055 982.864 -10.4327C983.089 -10.7656 983.334 -11.0869 983.585 -11.4239C977.406 -5.20737 972.937 2.13194 970.53 9.69528C971.444 9.80567 972.376 9.86863 973.342 9.88664Z" fill="#FA7921" fill-opacity="0.28"/>
<path d="M997.986 58.4745C998.38 57.5834 998.79 56.6949 999.25 55.8141C999.758 54.8273 1000.32 53.8483 1000.9 52.8815C994.83 49.3973 989.533 44.2065 985.679 37.5197L977.02 42.8247C981.684 50.7483 989.16 56.0442 997.986 58.4745Z" fill="#FA7921" fill-opacity="0.28"/>
<path d="M1011.7 44.1008C1009.07 46.6858 1006.74 49.3858 1004.74 52.1551C1004.23 52.8508 1003.74 53.5745 1003.27 54.2846C1009.4 57.4383 1016.19 58.729 1022.83 57.9326C1025.07 57.6629 1027.3 57.1619 1029.47 56.4128C1029.22 56.3655 1028.96 56.325 1028.72 56.2616C1025.77 55.5508 1022.68 53.9227 1019.55 51.5475C1016.93 49.5676 1014.29 47.0557 1011.7 44.1008Z" fill="#FA7921" fill-opacity="0.28"/>
<path d="M1027.43 -15.9181C1033.61 -12.4419 1039.02 -7.19047 1042.94 -0.405754L1051.61 -5.71754C1046.88 -13.7391 1039.26 -19.0842 1030.27 -21.4692C1029.85 -20.4955 1029.4 -19.5175 1028.91 -18.5542C1028.45 -17.6735 1027.95 -16.798 1027.43 -15.9181Z" fill="#FA7921" fill-opacity="0.28"/>
<path d="M1056.47 25.3876C1059.07 15.8814 1058.53 6.13876 1054.3 -2.26836L1045.64 3.03722C1049.25 10.0699 1050.83 17.7135 1050.57 25.164C1052.6 25.1058 1054.57 25.1867 1056.47 25.3876Z" fill="#FA7921" fill-opacity="0.28"/>
<path d="M982.975 34.0981C979.393 27.104 977.805 19.513 978.043 12.1029C976.007 12.1776 974.004 12.1176 972.1 11.9332C969.56 21.378 970.111 31.0445 974.316 39.4034L982.975 34.0981Z" fill="#FA7921" fill-opacity="0.28"/>
<path d="M1045.73 24.2575C1046.83 24.0953 1047.92 23.9749 1048.99 23.8939C1049.2 17.023 1047.72 9.94713 1044.39 3.40586L1029.82 12.3598C1032.34 17.1501 1034.36 21.9544 1035.81 26.5667C1039.17 25.4884 1042.51 24.7152 1045.73 24.2575Z" fill="#FA7921" fill-opacity="0.28"/>
<path d="M1045.77 47.5609C1045.54 47.8846 1045.3 48.215 1045.04 48.5429C1051.17 42.3693 1055.62 35.1031 1058.04 27.602C1057 27.4875 1055.93 27.4113 1054.83 27.38C1054.19 27.3644 1053.54 27.3621 1052.89 27.3847C1052.3 34.639 1049.87 41.6384 1045.77 47.5609Z" fill="#FA7921" fill-opacity="0.28"/>
<path d="M1027.21 8.86056L1041.78 -0.0913555C1038.14 -6.39763 1033.15 -11.281 1027.49 -14.5274C1025.06 -10.8083 1022.09 -7.17607 1018.63 -3.74862C1021.66 -0.109141 1024.57 4.13977 1027.21 8.86056Z" fill="#FA7921" fill-opacity="0.28"/>
<path d="M308.277 427.714C318.712 446.944 345.653 451.192 368.458 437.186C391.253 423.186 401.283 396.243 390.843 377.004C380.408 357.774 353.467 353.525 330.661 367.532C307.855 381.538 297.842 408.484 308.277 427.714ZM381.439 382.779C389.501 397.635 381.763 418.438 364.154 429.253C346.544 440.068 325.742 436.794 317.68 421.938C309.619 407.083 317.356 386.28 334.966 375.465C352.564 364.656 373.378 367.924 381.439 382.779Z" fill="#FA7921" fill-opacity="0.28"/>
<path d="M335.191 380.977L347.639 403.029C348.001 403.669 348.942 403.82 349.743 403.346C350.531 402.879 350.891 401.971 350.523 401.32L338.075 379.268C337.713 378.627 336.773 378.476 335.972 378.951C335.183 379.418 334.824 380.326 335.191 380.977Z" fill="#FA7921" fill-opacity="0.28"/>
<path d="M332.674 423.013C332.171 423.613 331.835 424.158 331.946 424.231C332.052 424.297 332.554 423.874 333.057 423.275L350.466 402.748C350.969 402.149 351.304 401.604 351.193 401.53C351.087 401.465 350.585 401.887 350.082 402.487L332.674 423.013Z" fill="#FA7921" fill-opacity="0.28"/>
<path d="M349.007 400.933C348.033 401.514 347.596 402.636 348.046 403.444C348.493 404.244 349.646 404.43 350.631 403.843L365.6 394.924C366.574 394.343 367.011 393.221 366.56 392.413C366.114 391.613 364.951 391.434 363.976 392.014L349.007 400.933Z" fill="#FA7921" fill-opacity="0.28"/>
<path d="M346.424 404.03C347.234 405.522 349.316 405.849 351.084 404.763C352.853 403.677 353.627 401.595 352.818 400.103C352.008 398.611 349.926 398.283 348.157 399.369C346.4 400.449 345.614 402.538 346.424 404.03Z" fill="#FA7921" fill-opacity="0.28"/>
<path d="M1219.7 723.261L1200.97 734.767C1198.59 736.23 1197.75 738.868 1199.06 740.72L1215.71 771.881C1215.76 771.975 1215.81 772.06 1215.88 772.131C1217.33 773.991 1220.49 774.289 1222.94 772.784L1246.86 758.098C1249.19 756.663 1250.02 754.109 1248.82 752.265L1226.07 723.114C1226.05 723.137 1226.02 723.167 1226.01 723.19C1224.38 722.012 1221.78 721.984 1219.7 723.261Z" fill="#FA7921" fill-opacity="0.28"/>
<path d="M1287.22 699.318C1285.71 697.116 1283.37 696.266 1280.87 696.157C1281.8 694.477 1281.97 692.77 1281.32 691.143C1280.45 688.964 1278.09 686.164 1274.3 685.413C1272.39 685.034 1269.33 685.062 1265.67 687.313L1248.63 697.779C1247.46 695.717 1245.69 692.457 1244.3 689.455C1242.29 685.113 1236.75 681.727 1232.56 680.733C1230.35 680.205 1228.46 680.322 1226.94 681.056C1226.45 681.297 1225.96 681.557 1225.47 681.859C1222.33 683.788 1219.19 687.121 1219.73 689.895C1219.95 691.102 1220.83 691.981 1221.76 692.92C1222.99 694.164 1224.52 695.697 1225.38 698.634C1226.85 703.613 1224.73 719.138 1223.24 722.669L1246.61 752.627C1250.74 751.622 1260.21 749.137 1264.48 746.515L1285.79 733.428C1287.24 732.536 1291.95 729.294 1291.53 724.963C1291.33 722.879 1290.22 721.482 1288.82 720.563C1288.73 720.438 1288.67 720.325 1288.63 720.266C1288.61 720.238 1288.59 720.209 1288.56 720.178C1290.9 717.942 1291.81 715.397 1291.06 712.901C1290.16 709.898 1288.21 708.635 1286.65 708.097C1288.88 705.258 1289.15 702.129 1287.22 699.318Z" fill="#FA7921" fill-opacity="0.28"/>
<path d="M1387.82 594.355C1383.77 593.582 1379.33 596.351 1376.83 598.27L1374.99 593.842L1333.47 619.163L1336.17 623.07C1333.34 624.403 1328.85 627.077 1327.47 631.161C1326.28 634.63 1327.66 637.984 1331.54 641.109C1338.57 646.751 1350.14 642.502 1355.55 639.991C1360.33 640.421 1365.61 639.218 1370.46 636.259C1375.31 633.3 1378.94 629.059 1380.98 624.479C1385.75 620.785 1395.01 612.316 1393.91 603.072C1393.31 597.946 1391.26 595.002 1387.82 594.355ZM1335.79 636.645C1333.53 634.833 1332.53 633.135 1332.97 631.843C1333.55 630.124 1336.85 628.224 1339.12 627.351L1343.13 633.168C1344.36 634.942 1345.92 636.367 1347.72 637.468C1343.57 638.645 1338.84 639.107 1335.79 636.645ZM1374.01 624.851L1360.96 632.81L1359.53 630.193L1364.17 627.364L1357.93 615.929L1354.8 620.724L1353.24 617.856L1357.49 611.272L1359.73 609.91L1367.98 625.037L1372.59 622.228L1374.02 624.845L1374.01 624.851ZM1388.14 604.715C1388.63 608.733 1385.88 612.833 1382.85 616.045C1382.84 613.864 1382.46 611.715 1381.62 609.698L1378.86 603.112C1380.72 601.469 1383.93 599.4 1385.62 599.731C1386.9 599.98 1387.79 601.751 1388.14 604.715Z" fill="#FA7921" fill-opacity="0.28"/>
<path d="M1373.8 640.837C1372.39 641.697 1370.97 642.477 1369.55 643.177L1377.32 657.414L1385.58 652.356L1377.82 638.12C1376.56 639.056 1375.2 639.977 1373.8 640.837Z" fill="#FA7921" fill-opacity="0.28"/>
<path d="M1396 651.484L1371.47 666.431C1370.14 667.243 1369.43 668.749 1369.79 669.991L1374.37 685.726L1410.37 663.787L1399.76 651.73C1398.93 650.774 1397.34 650.671 1396 651.484Z" fill="#FA7921" fill-opacity="0.28"/>
</g>
</svg>
