<svg width="92" height="120" viewBox="0 0 92 120" fill="none" xmlns="http://www.w3.org/2000/svg">
<path d="M90.0565 29.032L62.1031 1.01753C61.4551 0.368041 60.5694 0 59.6405 0H10.7329C4.9435 0 0.255859 4.71959 0.255859 10.5V109.027C0.255859 114.829 4.9651 119.527 10.7329 119.527H80.6163C86.4057 119.527 91.0934 114.807 91.0934 109.027V31.5217C91.0934 30.5691 90.683 29.6598 90.0565 29.032ZM63.1401 11.9505L79.169 28.0144H66.6396C64.717 28.0144 63.1401 26.434 63.1401 24.5072V11.9505ZM80.6163 112.534H10.7329C8.81031 112.534 7.23336 110.954 7.23336 109.027V10.5C7.23336 8.5732 8.81031 6.99278 10.7329 6.99278H56.1625V24.5072C56.1625 30.3093 60.8718 35.0072 66.6396 35.0072H84.1159V109.005C84.0943 110.954 82.5389 112.534 80.6163 112.534Z" fill="white"/>
<path d="M66.6396 49.4907H24.7095C22.7869 49.4907 21.21 51.0495 21.21 52.9979V95.0196C21.21 96.9464 22.7653 98.5268 24.7095 98.5268H66.6396C68.5622 98.5268 70.1392 96.968 70.1392 95.0196V52.9979C70.1176 51.0495 68.5622 49.4907 66.6396 49.4907ZM28.1875 70.5124H42.1642V77.5051H28.1875V70.5124ZM49.1633 70.5124H63.14V77.5051H49.1633V70.5124ZM63.14 63.4979H49.1633V56.5052H63.14V63.4979ZM42.1642 56.5052V63.4979H28.1875V56.5052H42.1642ZM28.1875 84.5196H42.1642V91.5124H28.1875V84.5196ZM49.1633 91.5124V84.5196H63.14V91.5124H49.1633Z" fill="white"/>
</svg>
