<svg width="85" height="85" viewBox="0 0 85 85" fill="none" xmlns="http://www.w3.org/2000/svg">
<path d="M44.4521 2.68452C42.724 0.952556 40.4341 0 37.993 0C35.552 0 33.2621 0.952556 31.5339 2.68452C29.8058 4.41648 28.8553 6.71133 28.8553 9.15773C28.8553 11.0196 29.4169 12.7948 30.4322 14.2886L12.6751 57.8691C11.5734 57.4144 10.3637 57.1546 9.13236 57.1546C6.6913 57.1546 4.40147 58.1072 2.67329 59.8392C-0.891095 63.4114 -0.891095 69.1918 2.67329 72.7639L12.0703 82.1814C13.7985 83.9134 16.0883 84.866 18.5294 84.866C20.9704 84.866 23.2603 83.9134 24.9884 82.1814C26.7166 80.4495 27.6671 78.1546 27.6671 75.7082C27.6671 74.4742 27.4295 73.2618 26.9543 72.1577L35.984 68.4557L39.5052 71.9846C41.7734 74.2578 45.2946 75.5351 48.6646 75.5351C50.1984 75.5351 51.6889 75.2753 53.0283 74.734L61.6908 71.1835C64.0886 70.2093 65.7088 68.3907 66.1409 66.2041C66.5729 64.0175 65.7736 61.7227 63.959 59.8825L61.9068 57.8258L70.4181 54.3402C71.9087 55.3577 73.6801 55.9206 75.5379 55.9206C77.9789 55.9206 80.2688 54.9681 81.9969 53.2361C85.5613 49.6639 85.5613 43.8619 81.9969 40.3113L44.4521 2.68452ZM56.6142 54.6433H56.5926L35.66 63.2165H35.6384L23.8435 68.0443L16.7796 60.9649L34.1911 18.2289L66.4865 50.5949L56.6142 54.6433ZM21.5105 78.6526C20.7328 79.432 19.6743 79.865 18.5726 79.865C17.4708 79.865 16.4124 79.432 15.6347 78.6526L6.23765 69.2351C4.61748 67.6114 4.61748 64.9701 6.23765 63.3464C7.01534 62.567 8.07385 62.134 9.17557 62.134C10.2773 62.134 11.3358 62.567 12.1135 63.3464L21.5105 72.7639C22.2882 73.5433 22.7202 74.6041 22.7202 75.7082C22.7202 76.8124 22.2882 77.8515 21.5105 78.6526ZM60.4811 63.433C61.1075 64.0608 61.41 64.732 61.3235 65.2516C61.2155 65.7712 60.6755 66.2691 59.8546 66.5938L51.1921 70.1443C48.7294 71.1619 44.9274 70.3825 43.048 68.499L40.9958 66.4423L56.9599 59.9041L60.4811 63.433ZM78.519 49.7505C77.7413 50.5299 76.6828 50.9629 75.5811 50.9629C74.4794 50.9629 73.4209 50.5299 72.6432 49.7505L35.0768 12.1021C34.2991 11.3227 33.867 10.2618 33.867 9.15773C33.867 8.0536 34.2991 6.99278 35.0768 6.21339C35.8544 5.43401 36.9129 5.00103 38.0146 5.00103C39.1164 5.00103 40.1749 5.43401 40.9525 6.21339L78.519 43.8619C80.1391 45.4639 80.1391 48.1268 78.519 49.7505Z" fill="white"/>
<path d="M70.8934 16.3453C71.5199 16.3453 72.168 16.1072 72.6432 15.6093L83.9845 4.24326C84.9566 3.26903 84.9566 1.68862 83.9845 0.736043C83.0124 -0.238186 81.4354 -0.238186 80.4849 0.736043L69.1436 12.102C68.1715 13.0763 68.1715 14.6567 69.1436 15.6093C69.6189 16.0856 70.2453 16.3453 70.8934 16.3453Z" fill="white"/>
<path d="M59.617 8.81131C60.2435 8.81131 60.8916 8.57317 61.3669 8.07523L65.1904 4.24326C66.1626 3.26903 66.1626 1.71027 65.1904 0.736043C64.2183 -0.238186 62.6414 -0.238186 61.6909 0.736043L57.8673 4.56802C56.8952 5.54225 56.8952 7.10101 57.8673 8.07523C58.3425 8.57317 58.969 8.81131 59.617 8.81131Z" fill="white"/>
<path d="M80.4634 19.5495L76.6397 23.3814C75.6676 24.3557 75.6676 25.9361 76.6397 26.8887C77.115 27.365 77.763 27.6248 78.3895 27.6248C79.016 27.6248 79.6641 27.3866 80.1393 26.8887L83.9629 23.0567C84.935 22.0825 84.935 20.5021 83.9629 19.5495C83.0124 18.5753 81.4355 18.5753 80.4634 19.5495Z" fill="white"/>
</svg>
