<svg width="92" height="92" viewBox="0 0 92 92" fill="none" xmlns="http://www.w3.org/2000/svg">
<path d="M90.5353 11.4263C90.2328 10.7768 89.6712 10.2789 88.9799 10.084C88.2886 9.95411 87.5757 10.1706 87.1221 10.7118L81.2247 16.6222L75.0248 10.3005L80.9222 4.3902C81.4191 3.91391 81.6351 3.19948 81.4407 2.52834C81.3543 1.79226 80.8142 1.16442 80.1013 0.969577C73.8799 -1.21702 66.9671 0.363391 62.301 5.01803C59.7736 7.59432 58.1102 10.885 57.5485 14.4572L48.1299 10.7335L43.8959 15.7129C40.8932 15.4098 37.8688 15.4964 34.8877 15.9294L30.3297 11.2531L17.3899 16.8603L17.9083 23.5067C15.5321 25.3685 13.4366 27.5768 11.7084 30.0448L5.07655 29.8283L0 42.9912L4.96854 47.2345C4.6661 50.2438 4.75249 53.2747 5.18454 56.2624L0.432039 60.8304L6.11346 73.7985L12.6374 73.2789C14.56 75.6387 16.785 77.7387 19.2693 79.4923L19.0532 86.0304L32.1874 91.118L36.4215 86.2469C39.4242 86.55 42.4485 86.4634 45.4296 86.0304L49.9877 90.7067L62.8195 85.0995L62.4091 78.4531C64.7853 76.5912 66.8807 74.383 68.6089 71.9149L75.1328 72.1314L80.2094 58.9686L75.3488 54.7253C75.6513 51.716 75.5649 48.685 75.0464 45.6974L79.7989 41.1294L76.7962 34.1799C80.447 33.682 83.8385 31.9716 86.4092 29.3088C91.0321 24.5892 92.6523 17.683 90.5353 11.4263ZM75.3272 60.1809L72.3245 67.8448H66.4271L65.8006 68.7758C63.9428 71.5253 61.6314 73.95 58.9743 75.9201L58.0454 76.6562L58.5638 82.4582L50.9166 85.6624L46.877 81.4191L45.7321 81.6356C42.4485 82.2634 39.1002 82.3717 35.795 81.9387H34.7581L30.9345 86.2902L23.2873 83.2809V77.2624L22.3584 76.6345C19.5933 74.7943 17.1738 72.4778 15.2296 69.7933L14.4952 68.8624L8.59771 69.382L5.40058 61.718L9.63464 57.6696L9.41861 56.6304C8.87855 53.2964 8.81373 49.9191 9.20257 46.5634V45.5242L4.96854 41.6923L7.86324 34.0283H13.7607L14.4952 33.0974C16.2666 30.3046 18.5564 27.8799 21.2135 25.9531L22.1424 25.217L21.7319 19.3067L29.2927 15.9943L33.4404 20.2376L34.4773 20.0211C37.7608 19.4799 41.1092 19.4149 44.4143 19.8046H45.5592L49.3829 15.4531L57.4621 18.5706C57.5053 19.5232 57.635 20.4541 57.8726 21.3634L50.6358 28.616C47.3739 27.0356 43.8095 26.2345 40.1803 26.2345C26.7005 26.1696 15.7265 37.0809 15.6617 50.6119C15.5969 64.1211 26.4844 75.1191 39.9859 75.184C53.4225 75.249 64.3965 64.4026 64.5045 50.9149C64.5477 47.5593 63.878 44.2469 62.5387 41.1727L69.8835 33.7036L72.3677 34.2232L74.852 40.0253L70.6179 44.182L70.834 45.2211C71.4604 48.5335 71.5685 51.9325 71.1364 55.2881L70.9204 56.3273L75.3272 60.1809ZM55.0427 48.5551L59.2767 44.3119C59.9896 46.4552 60.3352 48.685 60.3136 50.9582C60.3784 62.2376 51.2839 71.4387 40.0291 71.482C28.7743 71.5469 19.5933 62.4325 19.5501 51.1531C19.4853 39.8737 28.5799 30.6727 39.8347 30.6294C42.4485 30.6077 45.0624 31.1057 47.4819 32.0799L42.9238 36.5397C38.0849 35.6088 33.1163 37.1675 29.6816 40.6964C23.8922 46.585 23.8922 56.0675 29.6816 61.9562C32.4899 64.749 36.2703 66.3294 40.2451 66.3077C48.4756 66.3943 55.2155 59.7912 55.3019 51.5428C55.3235 50.5253 55.2371 49.5294 55.0427 48.5551ZM70.0563 29.482C69.3218 29.1789 68.4577 29.3521 67.8744 29.8933L51.3271 46.4768C50.8086 46.9964 50.5926 47.7325 50.7006 48.4469C51.7591 52.1706 50.7438 56.1758 48.0003 58.9253C43.7663 63.1902 36.8967 63.2119 32.6411 58.9686C28.3854 54.7253 28.3638 47.8407 32.5979 43.5758C34.6285 41.5407 37.3936 40.4366 40.2451 40.4582L43.1398 40.7613C43.8311 40.9778 44.5872 40.7613 45.1056 40.2417L61.653 23.6582C62.1931 23.0737 62.3875 22.251 62.1714 21.4716C60.5513 16.7304 61.7178 11.4912 65.1741 7.89741C67.8312 5.21288 71.5468 3.84896 75.3056 4.1737L70.5531 8.84999C69.8187 9.67267 69.8187 10.9283 70.5531 11.751L79.6477 21.0819C80.0581 21.4283 80.555 21.6448 81.0951 21.7098C81.6567 21.6881 82.2184 21.4716 82.6504 21.0819L87.2085 16.3191C87.5325 20.0644 86.1716 23.7448 83.4929 26.3861C80.0149 29.9366 74.7656 31.149 70.0563 29.482Z" fill="white"/>
</svg>
