<svg width="44" height="40" viewBox="0 0 44 40" fill="none" xmlns="http://www.w3.org/2000/svg">
<path d="M31.9442 14.7814L34.9555 1.70043C35.155 0.826465 34.4901 0 33.5971 0H12.565C10.4181 0 8.55615 1.48194 8.07167 3.57185C7.87217 4.44581 8.53715 5.27228 9.43011 5.27228H27.0709C27.9638 5.27228 28.6288 6.10825 28.4293 6.97271L27.8498 9.4711C27.7073 10.0981 27.1469 10.5446 26.4914 10.5446H7.56819C6.92221 10.5446 6.36174 10.991 6.20974 11.618L0.262993 37.3239C0.0635012 38.1979 0.718974 39.0244 1.62144 39.0244H4.04383C4.68981 39.0244 5.25028 38.5779 5.40228 37.9509L10.2756 16.9378C10.4181 16.3108 10.9785 15.8643 11.634 15.8643H30.5952C31.2317 15.8643 31.8017 15.4179 31.9442 14.7814Z" fill="#FEFEFE"/>
<path d="M38.4417 0.835965L32.8559 25.003C32.7419 25.4969 32.305 25.8389 31.8015 25.8389H17.8561C17.1626 25.8389 16.6496 25.1929 16.8016 24.5185L18.0176 19.2177C18.1695 18.5432 17.6566 17.8973 16.9631 17.8973H13.9042C13.4007 17.8973 12.9638 18.2487 12.8498 18.7332L8.47995 37.7039C8.32796 38.3784 8.84094 39.0339 9.53441 39.0339H12.5933C13.0968 39.0339 13.5337 38.6824 13.6477 38.1979L15.0822 31.9662C15.1962 31.4722 15.6332 31.1302 16.1366 31.1302H30.0726C30.766 31.1302 31.2885 31.7762 31.127 32.4601L29.9111 37.7229C29.7496 38.3974 30.272 39.0529 30.9655 39.0529C33.2549 39.0529 35.2403 37.4664 35.7628 35.234L36.7128 31.1397L37.9287 25.8674L43.6095 1.35844C43.7615 0.645973 43.239 0 42.5455 0H39.4962C38.9927 0 38.5557 0.351485 38.4417 0.835965Z" fill="#FEFEFE"/>
</svg>
